<svg id="Layer_1" xmlns="http://www.w3.org/2000/svg" viewBox="0 0 992.1 1133.9"><style>.st0{fill:#fdc839}.st1{fill:#020304}.st2{fill:#f9be94}.st3{fill:none}.st4{fill:#1a4168}.st5{fill:#f9bd8e}.st6{fill:#2d2317}.st7{fill:#8e5f46}.st8{fill:#f6b386}.st9{fill:#2d1c12}.st10{fill:#3d2214}.st11{fill:#fefefe}.st12{fill:#f9c4a0}.st13{fill:#2c2318}.st14{fill:#f08575}.st15{fill:#ef7a53}.st16{fill:#f7ae7b}.st17{fill:#fbfbfb}.st18{fill:#4f2b15}.st19{fill:#491015}.st20,.st21{fill:none;stroke:#8f5f46;stroke-miterlimit:10}.st21{opacity:.2;fill:#ddd;stroke:#7f7f7e;enable-background:new}.st22{fill:#c2c2c0}.st23{fill:#4f2a15}.st24{fill:#050605;stroke:#000;stroke-width:2;stroke-miterlimit:10}.st25{fill:#893d23}.st26{fill:#fff}.st27{fill:none;stroke:#7f7f7e;stroke-width:.1;stroke-miterlimit:10}.st28{fill:#3a2b20}.st29{opacity:.25;fill:#fbfbfb;enable-background:new}.st30{fill:#f7b282}.st31{fill:#f4c4a4}.st32{fill:#184b75}.st33{fill:#010202}.st34{fill:#c11b1a}.st35{fill:#173860}.st36{fill:#fafafa}.st37{fill:#f7b487}</style><ellipse class="st0" cx="496.1" cy="590.6" rx="414.7" ry="405.5"/><path class="st1" d="M621.5 581l-67.2-33.8-15 52.5 42.5 20zm-227.7 1.2l67.2-33.8 15 52.5-42.5 20z"/><path class="st2" d="M604.8 544.3c-2.6 27.8-2.8 58.1.9 90.3.5 4.2 1 8.4 1.6 12.5-34.9 25.2-69.8 50.5-104.7 75.7-29.6-24.2-59.3-48.5-88.9-72.7.5-4.6 1-9.2 1.4-14 2.7-32.2 1.7-62.4-1.5-89.9"/><path class="st4" d="M608.7 631.7c42.5 1.6 146.7 11.4 193.3 83.9 19.3 30 23.4 69.9 30.9 148.4 6 63.2 6.6 115.7 6 152-108.6-.2-217.3-.8-325.9-1.8-110.7-1-221.4-2.4-332.1-4.2-2.7-35.5-4.2-88.5 4-152 9.6-74.2 15.1-117.5 45.6-155.9 51.7-65.2 140.5-72.4 173.2-73.4 35.4 16.5 70.8 32.9 106.2 49.4 33-15.5 65.9-31 98.8-46.4z"/><path class="st6" d="M574.8 365.2s-30.4-2.7-50.1 6.8m33.5 8.4s10.9-5.7 25.3-6.6m-131.3.5s7-6.9 12.3-7.8"/><path class="st2" d="M512.9 598.6c-26.9.5-42.5-6.1-52-12.4-6.6-4.4-16.7-11.5-36.2-26.5-2.6-2-5.3-4.1-8.7-7.2-6.6-6.1-8.2-9.1-19.3-23.3-9.8-12.5-13.2-16.5-17.8-25.3-.9-1.8-1.9-4.5-2.8-6.3-6.6-18.1-8.4-36.2-10.8-55.1-.6.2-1.6.2-2.9.2-1.1 0-2.3-.2-3.2-1.1-4.7-5.4-.9-11.8-1.9-18.1-2-6.5-2.7-11.8-3-15.4-.4-5.9-.7-20-.8-25.2 0-1.1 0-2.8-.7-4.8-1.2-3.7-3.7-5.3-5.2-13.3-1.3-6.9-2.8-14.3 1.2-18.9 4.3-5 12.7-4.3 14.5-4.1.1-3.8.4-9.6 1.1-16.5.5-5.1 1.4-8.7 1.3-10.2-1.9-30.7-.9-61.5 2.8-92.2.9-8.1 2.8-16.3 5.6-23.5.9-2.7 1.9-4.5 2.8-7.2s3.7-5.4 6.6-7.2c33.1-21.3 92.7-27.1 92.7-27.1H509"/><path class="st2" d="M509.2 157.7c46.7 13.5 93.5 26.9 140.2 40.4 7.5 11.8 7.3 127.1 7.3 127.1 0 4.9.1 9.8.1 14.8 1.3-.2 8.4-1.3 12.3 2.9 1 1 1.5 2.1 1.9 2.9 1.4 3.4 1.5 6.9 1.2 10.4-.4 4.2-1.4 7.3-1.6 8.1-4.4 13.6-5.2 15.5-5.6 17.1 0 0-.1.5-.3 1-1.5 6.2 1.1 15.6-.6 25.3-.4 2.3-.8 3-1.9 8.5-.6 3-1 5.4-1.3 6.9 1.5 9.5 0 16.3-1.9 18.1-.9.9-2.1 1.1-3.2 1.1-1.3 0-2.3-.1-2.9-.2-4.1 27.8-8.5 48.2-11.2 55.1-1.4 3.5-2.9 6.3-2.9 6.3-2.6 4.9-6 9.3-7.4 11.1-1.1 1.3-2 2.4-3.3 4.3-1.8 2.7-2.4 4.4-6.6 10-4.6 6.1-12.1 14.2-18.9 21.5-1.3 1.4-3.2 3.4-5.5 5.9-.8.9-2.2 2.4-4.1 4.2-7.5 7.3-11.5 8.8-23.1 17.7-1.2.9-3.9 3-7.8 5.4-1.5.9-3.1 1.9-4.7 2.8-2.5 1.4-5.5 2.9-9.2 4.5-5.1 2.1-17.9 5.9-35.5 7.8"/><path class="st7" d="M352 369.6c-4-13.1-4.7-20.2-2.2-21.5.8-.4 2-.2 3.5.7 0 0 6.2 4.2 3.1 7.2-2.1-2.6-3.7-3.7-4.6-3.3-1.8.7-1.8 6.3.2 16.9zm312.7-2.4c4-13.1 4.7-20.2 2.2-21.5-.8-.4-2-.2-3.5.7 0 0-6.2 4.2-3.1 7.2 2.1-2.6 3.7-3.7 4.6-3.3 1.9.7 1.8 6.3-.2 16.9z"/><path class="st8" d="M397.6 496.5c6.5 8.1 23.1 26.4 26.9 24.1 3.2-2-3.6-17.8-9.8-30.7-1.2-2.1-3-5.2-4.9-9-7-13.9-10.3-25.3-11.9-31-10.9-37.6-11.7-33.8-14.3-46.8-10.6-52.8 5.2-98.4 9.7-111.3.7-2 1.7-4.9 3.2-8.6 2.5-6.1 13.1-31.4 37.5-57.2 20.8-22 42.8-35.2 58.1-42.8-13.4-1.5-34-2.2-57.9 3.4-18.2 4.3-32.5 10.9-42.7 16.5 0 0-28.7 159.4-24.4 173.1-4.1 66.8 16.1 102.3 30.5 120.3z"/><path class="st3" d="M502 686.5v317.1"/><path class="st1" d="M510.1 677.8c12.7 15.5 25.4 31 38.2 46.6-8.9 5.1-13.6 10.9-16.2 16.2-.7 1.5-1.1 2.6-1.9 2.8-2.5.3-7.8-11.1-20.1-65.6zm-1.1-.3c-12.7 15.5-25.4 31-38.2 46.6 8.9 5.1 13.6 10.9 16.2 16.2.7 1.5 1.1 2.6 1.9 2.8 2.5.3 7.8-11.1 20.1-65.6z"/><path class="st9" d="M473.8 319.5c.6-1.1 1.8-3.7 1.4-7.1-.6-4.3-3.5-6.9-4.4-7.7-1.1-1-2.3-1.7-3.1-2.1.3.3.5.7.8 1.1.6.9 1.1 1.8 1.4 2.6 0 0-6.4-5.4-11.4-5.7 0 0 2.2.9 1.7 2-2.5-.8-5.9-1.9-10-2.9-3.5-.9-8.7-2.1-15.3-2.7-2.7-.3-7.4-.7-13-.3-5 .3-13 1.5-22.3 5.6 0 0 6.2-1.4 7.8-.2-3.8.4-10.7 1.8-17.3 6.7-2.5 1.9-4.4 3.9-5.9 5.6-1.3 1.5-2.6 3.1-3.9 4.6 3.7-1.3 8.7-2.9 15-4.3 3.6-.8 14-3 28-3.2 6-.1 12.9.2 20.3 1.1 12 1.4 22.1 4.1 30.2 6.9z"/><path class="st10" d="M448.6 479.4l121.7.4s-39.9 36-54.9 32.6c-.1 0-64.5-14.4-66.8-33z"/><path class="st11" d="M540.2 483.6c-8.8-1.9-17.1 0-17.1 0-3.5 1.1-14-.3-14-.3-2.9 1.5-13.3.3-13.3.3-9.7-2.1-17.1 0-17.1 0-5.8 1.1-12.8 0-12.8 0-3.6-.8-7.3-1.8-11.2-3-1.8-.5-3.6-1.1-5.3-1.6 5.3 4.5 13.8 10.6 25.6 15.2 4.8 1.9 17.1 6.2 33.6 6.2 5.5 0 24.9-.4 45.7-11.6 6.1-3.3 10.9-6.7 14.1-9.3-9.6 1.2-18.9 2.6-28.2 4.1z"/><path class="st12" d="M597.5 518.1c28.2-27.2 39-52.5 43.7-69.3 1.8-6.4 3.4-13.9 8.1-62.7 2.2-22.9 3.9-41.8 5-54.8.6-2.7 1.3-6.7 1.9-11.4.7-5.6 3-27-5-62.7-3.6-15.8-9.8-37.2-21.2-61.5-4.5 6.2-14.8 22-15.6 44.6-.6 18.6 5.5 32.8 9.1 39.5 6.5 9.7 14.4 24.3 18.4 43 4.9 22.9 1.8 41.3.1 45.6 0 .1-.1.3-.2.6-1.5 3.8-1.9 5.8-2.8 8.1-.5 1.2-1.1 2.4-2.3 4.7-2.4 4.6-8.8 16-9 16.4-.1.1-.1.3-.1.3 0 .1-.1.2-.1.3-.5 1.2-1.2 3-4.3 11.5-4 10.8-4.5 12-4.6 12.6-3.6 11.4-5.3 22.1-8.5 39.9-2.4 12.9-6.3 31.9-12.6 55.3z"/><path class="st9" d="M538.4 318.4c-.6-1.1-1.8-3.7-1.4-7.1.6-4.3 3.5-6.9 4.4-7.7 1.1-1 2.3-1.7 3.1-2.1-.3.3-.5.7-.8 1.1-.6.9-1.1 1.8-1.4 2.6 0 0 6.4-5.4 11.4-5.7 0 0-2.2.9-1.7 2 2.5-.8 5.9-1.9 10-2.9 3.5-.9 8.7-2.1 15.3-2.7 2.7-.3 7.4-.7 13-.3 5 .3 13 1.5 22.3 5.6 0 0-6.2-1.4-7.8-.2 4.5.8 12.1 2.8 17.4 7.5 1.1 1 3.2 3.1 5.3 5.6 2 2.4 3.6 4.5 4.7 6-3.4-1.9-8.6-4.4-15.3-6.4-10.3-3-18.7-3.1-28-3.2-6-.1-12.9.2-20.3 1.1-11.9 1.3-22.1 4-30.2 6.8z"/><path class="st13" d="M620.3 213.8c-25.1-21.6-70.3-9.3-70.3-9.3-15.9 2.1-38.2 2.8-63.4-3.2-9-2.2-17-4.9-24.1-7.8-4.9-1.1-12.7-2.1-21.5 0-4.6 1.1-17.6 4.9-34.2 27.1-5.3 7.1-14.3 21.3-23.4 47.5-10.1 28.9-11.8 54.2-13.8 84.1-1 15.3-1.3 28.1-1.2 37.1-1.4-10.4-2.4-21.9-2.5-34.3 0-5.4.1-10.7.3-15.7-3.7-27.5-6.2-57.5-6.7-89.6-.2-13.2 0-26 .4-38.4-.5.9-1 1.8-1.4 2.7.1-1 .2-2.1.4-3.1 2.1-15.4 6.1-29.6 11.4-42.6l1.6-9.5s-.5 7.5.3 8.3c4.4-7.9 14.9-26.1 28.7-41 2.7-2.9 7.8-8.1 14.1-13.9 7.6-6.9 13.5-11.5 15-12.7 4-3.1 7.4-5.5 10.1-7.3 0 0 7.4-7.3 15.2-9.5 0 0-17.5 10.8-15.9 13.9 0 0 15.9-14.8 26.9-16.6 0 0-11.2 5-13.1 7.1 0 0 26.7-12.4 32.3-9.9 0 0-16.2 3.5-16.1 4.7 0 0 31.5-8 35.6-7.7s-36.7 10.1-43.1 16.7c3.5-1.5 7.1-3 10.9-4.4 10.7-4 20.8-6.8 30.1-8.9-8.4 3.2-14.7 6.7-19 9.5-2.1 1.3-5.8 4.1-5.6 4 4.2-2.7 9.2-5.5 15-7.9 17.6-7.3 34-7.8 44.4-7.1 0 0-20.4 1.4-23.9 6.8 0 0 29.3-7.5 54.1-3.4 0 0-8.4.9-8.9 2.3 0 0 10.1-3.2 25.8 6.1 0 0-45-2-72.4 16.3 0 0 25.3-11.3 28.3-9.9 0 0-7.3 2.3-8 4.3 0 0 59.5-12 64.4-5 0 0-12.4-2.9-14.8 1.6 4.9-.7 13.6-1.3 23.7 1.6.2.1.4.1.5.2.2.1.4.1.6.2 7.4 2.3 12.9 5.7 16.4 8.3-1.9-.1-4-.2-6.1.7-3.7 1.5-8.7 5.4-13.8 14.9 1.8-2 4.1-4.3 7-6.6 4.4-3.4 8.6-5.6 12-7-1.7.5-6.2 2.1-9.4 6.6-1.5 2.1-2.2 4.2-2.5 5.7.7-1.7 1.9-4.1 4.3-6.4 5.4-5.1 12.3-5.2 14-5.2 0 0-12.3-.2-17.8 14.2 0 0 11.6-17 20.5-13.3 0 0-17.3 14.8-15.3 22.9l16.4-21.5s-5.2 12.1-3.9 14.5c.3-1.3.9-3.7 2.8-6 2.9-3.6 6.8-4.8 8.1-5.1-1.7 1.5-3.7 3.7-5.6 6.6-2.3 3.6-3.4 6.9-4.1 9.3.9-4.6 4.2-8.5 8.7-9.9 5.1-1.7 10.8-.1 14.4 3.9-1.4-.1-7.5-.5-13.1 3.6s-6.9 9.8-7.2 11.1c0 0 9.7-16.3 29.7-2.4-.9-.5-4.9-2.6-9.8-1.5-4.7 1.2-8.5 5-9.6 10 0 0 7.5-11.4 10.5-7.9 0 0-2.3.3-3 2.4 0 0 12-3.3 15-.5 0 0-5.8-3.2-11.6 7.4 0 0 3.1-3.5 3.7-2.9 0 0-13.3 13.7-13.3 17.6 0 0 8-17.9 24.8-16.6 0 0-10.1-.2-13.7 6.9 0 0 11.2 2.6 11.9 12.7 0 0-2.2-3.9-3-2.4 0 0 4.1 4.8 4.2 8.9 0 0 10.9 84.8-.6 120.1-1.1 3.4-4.2 15.6-7.7 32.5-5.7 28.3-7.4 48.3-7.9 54.1-.6 8.3-.8 13.6-.9 13.6-.3 0-.1-16.9 2.1-95.1 0 0-1.9-33.7-5-44.6 0-.5.6-11.9-28.4-37z"/><path class="st14" d="M467 485.5c6.6.7 12.2 0 12.2 0 3.1-.4 4.8-.9 8.3-.9s5.3.5 8 .9c3 .4 7.5.7 13.4-.3v-8.9c-16.9-5.8-30-1.5-30-1.5-22.9 7-33.6 2.6-33.6 2.6 6.3 12.3 13.5 21.2 18.9 26.9 7.3 7.8 14.3 14.8 25.9 19.2 7.5 2.8 14.4 3.4 19 3.5l-.3-24.9c-5.2 0-12.3-.4-20.6-2.3-21.4-5-36-17.4-35.7-18 .2-.6 5.2 2.8 14.5 3.7z"/><path class="st14" d="M550.1 485.5c-6.6.7-12.2 0-12.2 0-3.1-.4-4.8-.9-8.3-.9s-5.3.5-8 .9c-3 .4-7.5.7-13.4-.3v-9c16.9-5.8 30-1.5 30-1.5 22.9 6.9 33.6 2.6 33.6 2.6-6.3 12.2-13.4 21.1-18.9 26.9-7.8 8.4-14.6 15.5-26 19.7-7.3 2.6-13.9 3.1-18.4 3-.1-8.3-.1-16.6-.2-24.9 5.2 0 12.3-.4 20.6-2.3 21.4-5.1 36-17.4 35.7-18s-5.3 2.9-14.5 3.8z"/><path class="st3" d="M462.7 347.6c-3.9 2.1-8.7 4.2-14.3 5.8-16.5 4.6-31 2.1-38.8.1 0 0-9.4-12.2 21.7-17.2 2.7 0 5.8.2 9.1.8 10.5 2 18 7.1 22.3 10.5zm92.9-.6c3.9 2.1 8.7 4.2 14.3 5.8 16.5 4.6 31 2.1 38.8.1 0 0 9.4-12.2-21.7-17.2-2.7 0-5.8.2-9.1.8-10.5 2-18 7-22.3 10.5z"/><path class="st16" d="M396.6 356.7c.6-4.8 2.3-12.9 8.7-19.7 13.2-14 35.6-10.6 43.7-9.3 17.6 2.7 29.8 11.6 35.8 16.9-1 2.7-3.9 9.6-11.3 14.4-13.3 8.5-28.6 2.1-29.7 1.6 2.3.2 10.4.8 17.8-4.3 1.5-1 7.5-5.2 6.6-7.5-1.2-2.9-12.6-.9-36.1 2.7-15.3 2.4-27.6 4.1-35.5 5.2z"/><path class="st17" d="M462.4 347.5c-3.9 2.1-8.7 4.2-14.3 5.8-16.5 4.6-31 2.1-38.8.1 0 0-9.4-12.2 21.7-17.2 2.7 0 5.8.2 9.1.8 10.5 2 18.1 7.1 22.3 10.5z"/><path class="st18" d="M420.5 346.4c0-3.7 1.8-6.9 4.6-9 1.8-.5 4.2-1 7.1-1 2.6-.1 4.9.2 6.7.6.9.6 3.7 2.8 4.8 6.2.3 1.1.5 2.2.5 3.3 0 3.5-1.6 6.6-4.2 8.7-2.2.3-4.7.6-7.4.8-2.3.1-4.6.1-6.6.1-.9-.6-3.9-2.7-5-6.2-.5-1.8-.5-3.3-.5-3.5z"/><path class="st19" d="M402.5 353.7c.8-2.7 2.4-6.8 6.1-10.5 6.9-6.9 16.2-7.5 22.7-7.8 5.4-.2 15.1.3 25.2 5.5 3.8 2 6.9 4.2 9.3 6.3-4.2 2-10.2 4.5-17.8 6.4-5.1 1.3-10.5 2.2-10.6 1.9-.1-.3 3.9-1.3 9.4-3.2 5.7-2 10.4-3.9 13.5-5.3-17.8-11.4-30.5-9.8-30.5-9.8-5 .6-14 2.3-19.6 8.2-2.1 2.2-2.2 3.6-2.2 4.2v.2c0 .1 1.3 3.5 5.5 4.5 1 .2 1.8.2 1.8.3 0 .1-3.9 0-8.1-.4-1.9 0-3.6-.3-4.7-.5z"/><path class="st20" d="M363.3 341.8s-21.6-5.1-15.5 23.2c0 0 5.1 9.7 5.8 26.4 0 0-.2 22.5 2.1 25.7.3 1 .8 2.7 1 4.7.6 4.6-.3 6.4.1 12.5.1 1.7.4 4.5 2.4 6.7.2.2.3.4.5.5.2.2.5.4.9.5.8.3 1.4.3 1.9.3 1.1 0 2-.4 2.6-.7"/><path class="st16" d="M621.2 356.1c-.6-4.8-2.3-12.9-8.7-19.7-13.2-14-35.6-10.6-43.7-9.3-17.6 2.7-29.8 11.6-35.8 16.9 1 2.7 3.9 9.6 11.3 14.4 13.3 8.5 28.6 2.1 29.7 1.6-3.8 0-10.6-.5-17.8-4.3-3.4-1.8-6.3-3.3-6.1-4.5.8-3.6 28.3-.9 35.6-.2 15.2 1.4 27.4 3.5 35.5 5.1z"/><path class="st17" d="M555.4 346.9c3.9 2.1 8.7 4.2 14.3 5.8 16.5 4.6 31 2.1 38.8.1 0 0 9.4-12.2-21.7-17.2-2.7 0-5.8.2-9.1.8-10.5 2-18 7.1-22.3 10.5z"/><path class="st18" d="M597.1 345.8c0-3.7-1.8-6.9-4.6-9-1.8-.5-4.2-1-7.1-1-2.6-.1-4.9.2-6.7.6-.9.6-3.7 2.8-4.8 6.2-.3 1.1-.5 2.2-.5 3.3 0 3.5 1.6 6.6 4.2 8.7 2.2.3 4.7.6 7.4.8 2.3.1 4.5.1 6.6.1.9-.6 3.9-2.7 5-6.2.5-1.8.5-3.3.5-3.5z"/><path class="st19" d="M615.4 353.1c-.8-2.7-2.4-6.8-6.1-10.5-6.9-6.9-16.2-7.5-22.7-7.8-5.4-.2-15.1.3-25.2 5.5-3.8 2-6.9 4.2-9.3 6.3 4.2 2 10.2 4.5 17.8 6.4 5.1 1.3 10.5 2.2 10.6 1.9.1-.3-3.9-1.3-9.4-3.2-5.7-2-10.4-3.9-13.5-5.3 17.8-11.4 30.5-9.8 30.5-9.8 5 .6 14 2.3 19.6 8.2 2.1 2.2 2.2 3.6 2.2 4.2v.2c0 .1-1.3 3.5-5.5 4.5-1 .2-1.8.2-1.8.3 0 .1 3.9 0 8.1-.4 1.9 0 3.5-.3 4.7-.5z"/><path class="st21" d="M484.6 355.5c-.1-3.3-10.2-16.8-10.2-16.8-17.6-24.6-53.9-19.2-53.9-19.2-19.8-.9-37.5 6.9-45.2 20.7-3.4 6.1-4.3 12.4-4.2 17.3 0 0 .9 48.5 50.9 56.6 3.1.5 23.4 2.5 41.2-11 22.9-17.4 21.6-45.1 21.4-47.6z"/><path class="st3" d="M357.8 340.3c-1.3.1-6.5.9-9.6 5.1-2.6 3.6-2.3 7.8-2.1 10.8.1 2 .5 3.7.9 4.8.3 1.7.6 3.1.8 4 .5 1.7 1 3.2 3.7 9.3.4.9.9 2.1 1.3 3 .2 1.8.4 4.6.6 8 .1 1.9.2 2.6.2 6.1 0 0 .2 9.4.7 15.7.2 2.3.5 4.7.9 7.4.2 1.2.4 2.1.5 2.6.3 1.6.7 3.6 1.2 6.1.2 1.9.2 3.4.1 4.6-.2 4.8-1.1 6.9 0 9.6.6 1.4 1.4 2.4 2 2.9.7.2 1.4.4 2.1.5"/><path class="st22" d="M489.1 341.5s16.1-7.1 36.3-.3l-.4 6.3c-14.1-4.2-36.2 0-36.2 0l.3-6z"/><path class="st1" d="M489.2 351.6v.9c-.1.7-.4 1.2-.7 1.6-.7 1-1.5 1.9-2.1 2.5h-1.9c-2.6-6-10.2-21-27.2-29.8-14.1-7.3-27-7.1-34.8-6.8-19.9.7-37.5 9.3-44 17.9-3.3 4.3-5.6 7.4-6.1 12.1-.4 3.5.4 6.6-1.2 7.5-1.8 1-5.4-1.3-5.6-1.8-2.8-5.4-2.8-12.7-8.4-15.4-1-.5-3.7-2.1-5.3-5.3-2.3-4.7-.4-9.2-.1-10 3.8-.2 9.4-.5 16.2-1.4 11.1-1.5 17.8-3.3 25-5 17.8-4.1 30.7-7 46.7-5.4 1.2.1 15.3 1.6 26.2 7.2 1.5.7 5 2.7 9.2 5.6 1.3.9 3.4 2.6 7.7 6 2 1.6 3.7 3 5 5.3.2.4.8 1.5 1.3 3 1.1 4.7-.1 9 .1 11.3z"/><path class="st3" d="M656.8 338.8c.7-.2 6.8-1.6 11.3 2.2 3.3 2.8 3.9 6.8 4.1 8.5.3 2.2.1 4.1-.2 5.3-.7 3.4-1.6 6.8-2.6 10.4-1.5 5.7-3.4 12.2-4.9 15.8-.3 1.4-.6 3.5-.8 6v2.9c.2 4.2.6 5 .7 7.7.2 4-.5 7.3-1 9.4-.4 2-.6 1.9-1.1 4.3-.2 1.2-.4 2.4-1.1 7.1-.2 1.6-.4 2.9-.5 3.8 0 2 .1 3.6.2 4.7.2 3 .4 4.9.1 7.5-.1.9-.3 2.1-1.1 3.4-.4.7-.9 1.2-1.2 1.6"/><path class="st21" d="M643 356.5c-.9-47.2-63-39.1-63-39.1-5.4.2-13.6 1.2-22.3 5.4-19.1 9.2-26.2 26.5-28 31.3-.2 2.5-1.5 30.3 21.4 47.6 17.8 13.5 38.1 11.5 41.2 11 50-8.1 50.9-56.6 50.9-56.6l-.2.4z"/><path class="st1" d="M524.9 350.7v.9c.1.7.4 1.2.7 1.6.7 1 1.5 1.9 2.1 2.5h1.9c2.6-6 10.2-21 27.2-29.8 14.1-7.3 27-7.1 34.8-6.8 18.4.7 39.4 8 44 17.9 4.8 10.2 5.2 13.3 5.2 13.3.4 2.7.4 5.5 2.1 6.3 2 1 5.3-1.2 5.6-1.8 2.7-5.3 1.7-10.4 6.4-14 .7-.5.9-.5 2-1.4 1-.8 4-2.8 5.3-5.3 2.3-4.7.4-9.2.1-10-3.8-.2-9.4-.5-16.2-1.4-11.1-1.5-17.8-3.3-25-5-17.8-4.1-30.7-7-46.7-5.4-1.2.1-15.3 1.6-26.2 7.2-1.5.7-5 2.7-9.2 5.6-1.3.9-3.4 2.6-7.7 6-2 1.6-3.7 3-5 5.3-.7 1.2-1 2.2-1.3 3-.1.3-.1.5-.1.6.1 5.8.1 9.7 0 10.7z"/><path class="st22" d="M358.6 334.3s2.9-1.9 7.1-1.9c0 0 6.4-.3 8.8 2.4 0 0-1.5 3.4-8.3 3.2-1.1-.1-3.1-.4-5.1-1.6-1.2-.7-2-1.5-2.5-2.1zm295.4-4.7s-2.9-1.9-7.1-1.9c0 0-6.4-.3-8.8 2.4 0 0 1.5 3.4 8.3 3.2 1.1-.1 3.1-.4 5.1-1.6 1.1-.6 1.9-1.4 2.5-2.1z"/><path class="st24" d="M498.2 718.5c0 97.4-.1 194.8-.1 292.2"/><path class="st8" d="M511.4 449s-.9.1-1.8 0c-5.4-.2-11.2-2.6-11.3-2.6-3.9-1.4-6.6-2.6-7-2.7-4.1-1.6-6.9-1.4-11-2.9-8.1-3.1-12.4-10-13.4-13.1-.9-2.8-.7-6.9-.7-6.9s0 2.6.4 4c1.1 3.5 7 4.8 8.7 5.2 4.9 1.1 9.1 0 11.4-.8.4 0 1 .1 1.8.1 0 0 2.2.1 4 .3 2.5.3 5 1.3 6.9 2 5.7 2.3 7.1 4.2 11.5 4.4h1.5c4.9-.2 7.1-2.9 10.9-4.7 3.9-1.9 7.6-2 11-2.1 5.6-.2 5.8 1.3 10.6.9 1.9-.2 9.3-1.1 11.4-5.5.6-1.4.7-2.9.7-2.9s-.3 3-1.2 5c-2.7 6-8.3 9.6-13.1 12.2-8.3 4.4-9.2 2-17.5 6.3-1.6.8-5.4 2.9-11 3.7-1.1 0-2.1.1-2.8.1z"/><path class="st25" d="M523.5 431.4s5.6-7.2 13-2.3c0 0-2.2 1.4-13 2.3z"/><path class="st3" d="M478.4 436.7c1.3.3-4.7-.3-7.7-2.7-3.7-2.9-5.1-7.4-4.8-10.6 0-.2 0-.4.1-.5.4-3.1 1.7-5.4 2.7-6.8-.1.1-8.1 16 9.7 20.6zm64.6.3c-.1 0-.2.1-.2.1s3.9-.9 6.9-3c3.5-2.5 6.1-6.7 5.8-10.4 0-.2 0-.3-.1-.5-.4-3.1-1.7-5.4-2.7-6.8.2.5 3.8 8.8-.2 14.2.1 0-2.6 3.6-9.5 6.4z"/><path class="st25" d="M499.1 431.6s-5.6-7.2-13-2.3c0 0 2.2 1.4 13 2.3z"/><ellipse class="st1" cx="432.4" cy="345.9" rx="4.2" ry="4.1"/><ellipse class="st1" cx="585.1" cy="346.1" rx="4.2" ry="4.1"/><path class="st26" d="M445.3 348.2v-5c-2.4.8-4.8 1.5-7.3 2.3 2.5.9 4.9 1.8 7.3 2.7zm153.4-4.9v5c-2.4-.8-4.8-1.5-7.3-2.3 2.5-.9 4.9-1.8 7.3-2.7z"/><path class="st8" d="M487.5 596.4c.3 2.4-10.4.2-18 6-7.3 5.6-9.6 12.9-10.3 15.2 2.8 8.6 5.6 20.2 6.2 34 .4 8.8-.1 16.6-1 23.2l-50.8-24.6 1.3-99.2s71 30.2 72.6 45.4z"/><path class="st3" d="M409.5 147.5l8.9-9"/><path class="st27" d="M651.5 223.7s11.2 27.1 8.1 41"/><path class="st28" d="M651.3 439.9c0-8.7-.2-13.1-.2-20.7-.1-10.8-.2-23.7-.1-33 0 .1-.1.3-.1.4-.1.2-.4.6-.5 1.3-.1.7.2 1.6 0 2.3-.2.6-.5.8-.5 1.6v1.8c0 1.3.3 3 0 4.3-.2 1.1-1 2.2-1.3 3.2-.4 1.1-.7 2.2-.9 3.3-.4 1.5-.7 3-1.1 4.5-.2.7-.4.8-.4 1.6 0 .7.1 1.5-.1 2.1-.4 1.5-.6 3.1-.8 4.6-.1.7-.3 1.4-.5 2.1-.3 1.2-.3 2.5-.6 3.7-.6 2.6-1 5.3-1.8 7.8-.4 1.1-.8 2.1-1.3 3.2-.6 1.4-1.2 3.1-2 4.4-.9 1.5-1.6 3-2.5 4.4-1 1.6-1.3 3.5-2 5.2-.4 1-.7 2-1.1 3-.3.7-.3 1.4-.5 2-.4.8-.9 1.4-1.2 2.3-.3 1-.8 1.8-1.1 2.8-.5 2.1-1.3 4.1-2.1 6.2-.3.7-.2 1.3-.6 2-.3.5-.9 1.1-1.3 1.7-.8 1.2-1.4 2.5-2.2 3.6-1 1.4-2.1 2.7-2.8 4.2-.9 1.7-1.9 3.4-2.9 5.1-1.3 2-2.1 4.4-3.3 6.3-.2.3-.5.4-.7.7-.1.2-.4.8-.4.9-.4.7-1 1.4-1.4 2.1-.2.3-.4.7-.6 1-.1.2-.6.3-.7.5-.4.8-.5 1.6-1.1 2.3-.9 1.1-1.8 2.2-2.6 3.4-.7 1.1-1.4 2.1-2.2 3.1-1 1.2-2.4 2.7-3.6 3.8-.1.1-.6.1-.8.3-.4.3-.6.8-.9 1.2-.3.4-.6.5-.9.8-.3.2-.7.8-1 .9-.7.4-1.6.5-2.4 1-.8.6-1.4.9-2.2 1.4-1 .5-2 1.2-2.9 1.9-1 .7-2.2 1.2-3.2 1.9-.5.4-.8.9-1.2 1.3-.6.5-1.3.9-1.9 1.4-1.1.9-2.1 1.6-3.3 2.1-1.1.5-2 1.5-3.1 2-1.4.6-2.7 1.2-4 1.9-.6.3-1 .3-1.6.5-.7.3-1 .9-2 .9.6-.6 1.1-1.3 1.7-1.9 1-.9 1-1.2 1.5-2.3.3-.6 1-1.1 1.3-1.6.5-.8.8-1.7 1.3-2.5 1-1.6 2.1-3.2 2.9-5 .9-1.9 1.9-4.1 3.3-5.9 1.5-2.1 2.7-5.1 3.2-7.6.4-2.2 1.5-4.1 1.5-6.4 0-.8.3-1 .4-1.6.3-1.1.1-2.5 0-3.7 0-1 .4-1.8.5-2.8v-1.1c0-.7.3-1.2.4-1.6.3-1.5.1-3 .5-4.4.2-.9-.1-1.8.1-2.7.2-.9.7-1.5.5-2.5 0 0 0-.2-.1-.5-.8-3.4-4.1-6.9-4.1-6.9-1.3-1.4-2.5-2.3-3.5-3.1-2.4-1.8-4.5-3-6-3.7-1-.5-4.1-2-8.7-3.1-1-.2-1.3-.3-7.8-1.2-7.6-1.1-7.9-1.2-9.1-1.2-1.6-.1-1.4 0-9.1.3-5.3.2-5.6.2-7.5.3-3.9.3-6.8.7-8.1.9-3.6.5-9.2 1.2-17.5 1.6-.3-.1-.8-.1-1.4-.2-2.8-.4-3.9-.6-5.2-.8-2.3-.4-3.4-.6-4.7-.9-4.1-1.1-4.7-1.9-8.4-2.4-2.5-.4-4.5-.3-7.8-.3s-3.9.2-8.1.3c-3.4.1-3.5-.1-5.9 0-2.2.1-5.7.2-9.7.9-3.3.5-6.6 1.1-10.6 2.7-1.6.6-.4.3-7.5 3.9-1.6.8-3.2 1.6-4.6 3.3-.3.3-.6.8-1.5 2.6-1.9 3.6-2.8 5.4-3.1 7.1-.3 1.5-.2 2.9-.1 5.6.1 1.5.2 2.7.5 4.4.4 2.9.6 3.3.8 5.6.3 2.6.2 2.8.4 4.8.1.7.5 3.5 1.5 6.9 1 3.2 1.8 5.7 3.2 7.6 1.4 1.8 2.3 3.9 3.3 5.9.8 1.7 1.9 3.4 2.9 5 .5.8.8 1.7 1.3 2.5.4.5 1.1 1 1.3 1.6.5 1.1.5 1.4 1.5 2.3.6.6 1.1 1.2 1.7 1.9-.9 0-1.2-.6-2-.9-.6-.2-1-.2-1.6-.5-1.3-.7-2.6-1.3-4-1.9-1.2-.6-2-1.5-3.1-2-1.2-.6-2.2-1.3-3.3-2.1-.6-.5-1.4-.9-1.9-1.4-.4-.4-.7-1-1.2-1.3-1-.7-2.1-1.2-3.2-1.9-.9-.7-1.9-1.4-2.9-1.9-.9-.4-1.4-.8-2.2-1.4-.7-.5-1.6-.6-2.4-1-.3-.2-.7-.7-1-.9-.4-.3-.6-.4-.9-.8-.4-.4-.6-.9-.9-1.2-.2-.2-.7-.1-.8-.3-1.2-1.1-2.6-2.5-3.6-3.8-.8-1-1.5-2-2.2-3.1-.8-1.2-1.7-2.3-2.6-3.4-.6-.7-.7-1.6-1.1-2.3-.1-.3-.6-.3-.7-.5-.2-.3-.4-.7-.6-1-.4-.7-1-1.3-1.4-2.1-.1-.1-.3-.7-.4-.9-.2-.3-.5-.4-.7-.7-1.2-1.9-2.1-4.3-3.3-6.3-1-1.6-2.1-3.3-2.9-5.1-.7-1.5-1.8-2.8-2.8-4.2-.8-1.1-1.4-2.4-2.2-3.6-.4-.6-.9-1.1-1.3-1.7s-.3-1.2-.6-2c-.8-2-1.5-4.1-2.1-6.2-.2-1-.7-1.9-1.1-2.8-.3-.9-.9-1.5-1.2-2.3-.3-.6-.3-1.3-.5-2-.4-1-.7-2-1.1-3-.7-1.7-1-3.6-2-5.2-.9-1.4-1.6-3-2.5-4.4-.8-1.3-1.4-3-2-4.4-.5-1.1-.9-2.1-1.3-3.2-.8-2.4-1.1-5.2-1.8-7.8-.3-1.2-.2-2.4-.6-3.7-.2-.7-.4-1.4-.5-2.1-.2-1.5-.4-3.2-.8-4.6-.2-.7-.1-1.4-.1-2.1 0-.8-.2-1-.4-1.6-.4-1.5-.7-3-1.1-4.5l-.9-3.3c-.3-1-1.1-2.2-1.3-3.2-.3-1.3 0-3 0-4.3v-1.8c0-.8-.3-.9-.5-1.6s.1-1.6 0-2.3c-.1-.6-.4-.8-.5-1.3-.3-1 0-2.5 0-3.6-.7 5.8-1.5 14.1-1.7 24.1-.3 11.9.4 20.9 1.2 32.8.8 11 1.9 20.5 2.5 26.4.9 9.7 1.6 13 1.6 13 .4 1.4.9 3.6 1.6 6.1 1.3 4.4 2.6 9.1 4.8 13.7 1.6 3.6 3.2 5.9 6.2 10.5 2.6 3.9 3.3 6.6 9.6 14.2 2.6 3.6 11.2 15.1 22 25.9 6 6 12.7 11.1 26.2 21.4 16.8 12.8 22.5 15.5 24.7 16.6 3.9 1.9 11.5 5.1 21.7 7.4 8.3 1.8 15.7 2.4 21.5 2.4 5.3 0 13.7.1 23.9-2.6 9-2.3 15.1-5.6 22.3-9.5 5.9-3.2 13.9-8 22.5-14.8.1-.1 9.3-6.6 16.2-13.3.9-.8 2-2 8.7-9.5 7.3-8.1 11.7-12.4 21.1-24.4 1.7-2.2 3.4-4.4 5.6-7.6 2.4-3.4 6.7-9.6 10.5-17.3 1.6-3.3 7.6-15.7 9.8-31.8.9-6.5 1.1-13.5 1.2-15.9-.5-3.4-.4-6.1-.5-11zm-97 97.6c-14.7 18.9-38 22.5-45 23.3-7-.8-30.4-4.4-45.2-23.3-3.7-4.8-6.2-9.7-7.9-14-10.8-14.6-15.3-27.1-18.1-34.9-2.5-6.7-2.8-11.7.1-15.3 3.1-3.8 9-3.8 11.1-3.7 4.7-.8 9.8-1.5 15.3-2 2.7-.3 9.2-.8 17.5-.9 7-.1 15.8.1 26 1.1 8.3-.8 17.7-1.3 27.9-1.1 12 .2 22.8 1.4 32.1 2.9 1.9-.1 8.5-.3 11.8 3.7 2.9 3.5 2.6 8.5.1 15.3-2.9 7.9-7.3 20.4-18.1 34.9-1.4 4.3-3.8 9.2-7.6 14zm97.3-163.9c-.3 0-.5 5.2-.5 12.6.9-2.7.9-12.6.5-12.6z"/><path class="st28" d="M530.7 526c-.2 0-.2.2-.4.2h-.7c-.3 0-.4.1-.7.2l-1.5.3c-.6.2-1.1.5-1.6.8-.3.2-.7.3-1 .5-.5.3-1.1.5-1.6.8-.3.1-.5.3-.8.4-.3.1-.7.1-1.1.3-.7.3-1.3.6-2 .8s-1.2.6-1.8.9c-.5.2-1 .4-1.6.4-.2 0-.2 0-.2.1h-.2c-.3-.1-.6-.2-.8-.4-.5-.2-.9-.1-1.4-.2-.6-.1-1-.3-1.7-.2-.3.1-.8.3-1.1.4-.4.2-.8.1-1.2.3-.5-.1-.8-.1-1.2-.3-.3-.1-.7-.3-1.1-.4-.6-.2-1 .1-1.7.2-.5.1-.9 0-1.4.2-.3.1-.6.3-.8.4h-.2s-.1 0-.2-.1c-.6-.1-1.1-.2-1.6-.4-.7-.3-1.1-.7-1.8-.9s-1.3-.6-2-.8c-.3-.1-.7-.1-1.1-.3-.3-.1-.5-.3-.8-.4-.6-.3-1.1-.5-1.6-.8-.4-.2-.7-.3-1-.5-.5-.3-1-.6-1.6-.8l-1.5-.3c-.3-.1-.4-.2-.7-.2-.2 0-.5.1-.7 0-.2 0-.2-.2-.4-.2h-.7c-.6 0-1.7.2-2.3.2 0 1.9 0 3.2.7 4.7.6 1.2.7 2.3 1.1 3.4.4 1 1.2 2.8 1.9 3.6.8 1 1.9 1.3 3.2 1.9 2.3 1.1 4.1 2.9 6.6 3.5 1.5.4 2.5.4 4 1.1.6.3.9.3 1.2.4 1.2.4 3 .7 5.8.3 2.8.4 4.6.1 5.8-.3.3-.1.6-.1 1.2-.4 1.5-.7 2.5-.7 4-1.1 2.5-.7 4.3-2.4 6.6-3.5 1.3-.6 2.4-.9 3.2-1.9.7-.8 1.5-2.6 1.9-3.6.4-1.1.6-2.2 1.1-3.4.7-1.6.7-2.9.7-4.7-.6 0-1.7-.2-2.3-.2-.4 0-.7-.1-.9 0z"/><path class="st7" d="M362.5 393.4c-3.1 1.3-5.2 4-5.4 7.1-.2 3.8 2.5 7.4 6.6 8.5-.8-1.5-1.9-4-2.2-7.2-.4-3.8.4-6.7 1-8.4zm290.9.2c3.1 1.3 5.2 4 5.4 7.1.2 3.8-2.5 7.4-6.6 8.5.8-1.5 1.9-4 2.2-7.2.4-3.7-.4-6.7-1-8.4zm6.8 46c-.2.5-.6 1.2-1.5 1.8-1.4 1-2.9.8-3.5.8-.6-.1-1.2-.1-1.7-.5-1.5-1.1-1-3.7-1-3.8.3.4 1.6 1.9 3.9 2.3 1.9.2 3.3-.4 3.8-.6zm-300.9.5c.4.7.9 1.1 1.2 1.4 1.4 1 2.9.8 3.5.8.6-.1 1.2-.1 1.7-.5 1.2-.9 1-2.6 1-2.8-.4.4-1.7 1.6-3.7 1.8-1.8.2-3.2-.4-3.7-.7z"/><path class="st3" d="M507.1 502.1v10.2"/><path class="st27" d="M588.9 115.2s4.4-6.9 28.4-6.9m-140.8 4.8s21.5-25.3 39.7-30.7m66.9 20.5s20.1-5 38.9 1.1m-84.6 26s8-12.2 24.8-15.8m-119.4 7.2c4.1-5 10.1-11.5 18.7-17.6 8.1-5.7 15.7-9.3 21.7-11.6.5-.4 1.1-.8 1.6-1.2m105.1 44.4s13.3-13.4 20.4-14.7M562.4 133s6.9-8.4 10-9m76.7 45.5s4.9-7.5 7.5-6.8m-13.1-5.4s7.3-11.7 15.9-14m-209.1 12.6s24.7-30.1 43.1-34m-13.1 36.4s39-41.3 68.4-49.1M380 231.2s0-35.2 28.1-56m-7.5-31.7s28.7-41.6 45.3-47m135.6 58.3s10.8-15.8 21.5-18.5m5.6 10.9s9.8-10.4 11.2-10.4m-24.3 31.6s18.3-25.8 33.7-24.4m10 59.5s13.1-20.5 18.1-22.3m-135.8 17.9s10.8-18.1 31.4-22.6m-67.3 15.2s19.7-31.6 53.9-41.1m29.9 35.9s4.1-6.3 12.5-8.1m-122.3 10.3c3-4.1 7.5-9.2 14.1-13.8 2.9-2.1 5.8-3.7 8.4-5"/><ellipse class="st29" cx="616" cy="357.6" rx="15" ry="14.5"/><ellipse class="st29" cx="457.4" cy="358.2" rx="15" ry="14.5"/><path class="st30" d="M473.5 412.5s6.6-5 13.1-4.5c.1-2.6.4-5.4.7-8.3.7-5.6 1.7-10.7 2.9-15.2l.3 16c.1 4.2.2 8.4.2 12.5.1 0-8.8-3.2-17.2-.5z"/><path class="st31" d="M515.7 425.6c.8-.9 2.2-2.3 4.2-3.4 6.8-4.1 14.5-2.1 16.3-1.7 1.8.5 4.8 1.4 8 3.6.5 0 3.1.1 4.8-1.8 1.9-2.1 1.9-5.7-.5-8.5-.2-.1-2.7-1.4-5.3-.2-1.9.9-2.6 2.7-2.8 3.1-3.9-6.8-8-14.9-11.6-24.2-5-12.9-7.8-24.8-9.4-34.6-1.2 22.6-2.5 45.2-3.7 67.7z"/><path class="st32" d="M394.2 581.8c38.5 31.9 77 63.8 115.5 95.6l-33.9 52.2c-7.2-6-15.8-13.6-25.2-22.6-14.9-14.2-25.5-26.2-30.3-31.6-12-13.7-26.8-32.3-42-56 1.7-5.7 3.8-11.8 6.5-18.3 3.1-7.3 6.3-13.7 9.4-19.3zm226.8-1.4c-37.1 32.4-74.2 64.8-111.2 97.1 10.7 18.1 21.4 36.1 32.1 54.2 17.7-15.8 37.5-35.9 57.1-61 14.4-18.5 26-36.4 35.3-52.7-1.3-5.4-3-11.1-5-17.2-2.6-7.5-5.4-14.4-8.3-20.4z"/><path class="st33" d="M683.5 762.3c3 82.7 6 165.3 9 248m-383-247c-5.7 82-11.3 164-17 246"/><circle class="st26" cx="509.1" cy="718.3" r="4.3"/><circle class="st26" cx="509.9" cy="778.2" r="4.3"/><circle class="st26" cx="509.4" cy="838.3" r="4.3"/><circle class="st26" cx="509.7" cy="901.5" r="4.3"/><circle class="st26" cx="510.2" cy="969.1" r="4.3"/><path class="st36" d="M144.2 366.4l31.5-42 46.5 46.5zm729.2 394.3c3-6.3 5.9-13 8.8-20 3.7-9.2 7-18.1 9.8-26.5-18.8.7-37.5 1.5-56.2 2.2 12.4 14.8 25 29.5 37.6 44.3z"/><circle class="st0" cx="97" cy="285.7" r="12.4"/><circle class="st0" cx="111" cy="327.7" r="18"/><circle class="st0" cx="934" cy="741.9" r="12.4"/><circle class="st0" cx="948" cy="699.9" r="18"/><path class="st37" d="M458.7 249.3s47.8-9.9 112-1.3M478 235.3s25.3-3.5 43.3-.5l-43.3.5z"/><path class="st20" d="M657.6 340.1s28.1-7.1 7.6 41.6c0 0 1 20-1.1 26-1 2.4-2 5.8-2.5 10s-.2 7.8.2 10.4c.2 1.2.2 2.1.2 2.9v.2c-.1 1.1-.3 1.9-.4 2.2-.8 3.3-.9 5.3-2.6 7-.2.2-.4.4-.6.5-.6 0-1.4 0-2.2-.1-1.2-.1-2.1-.4-2.9-.7"/></svg>