<svg id="Layer_1" xmlns="http://www.w3.org/2000/svg" viewBox="0 0 1700.8 1700.8"><style>.st0{fill:#fdcd3d}</style><path class="st0" d="M439.4 876.2h128.9V1459H439.4z"/><path class="st0" d="M870 476c-238.6 0-432 193.4-432 432 0 120.5 49.4 229.5 129 307.9V893h1.3c7.2-160 139.2-287.5 300.9-287.5 166.4 0 301.2 134.9 301.2 301.2S1035.6 1208 869.2 1208c-71.2 0-136.7-24.7-188.2-66.1v154.6c57.1 27.8 121.2 43.4 189 43.4 238.6 0 432-193.4 432-432S1108.6 476 870 476z"/><path class="st0" d="M857 223c-381.1 0-690 308.9-690 690 0 277.3 163.6 516.5 399.6 626.1v-79.9c-199.2-103.3-335.3-311.5-335.3-551.4C231.3 564.9 509.2 287 852 287s620.8 277.9 620.8 620.8-277.9 620.8-620.8 620.8c-60 0-118-8.5-172.9-24.4v75.7c56.8 15.1 116.4 23.2 177.9 23.2 381.1 0 690-308.9 690-690S1238.1 223 857 223z"/></svg>