<svg id="Layer_1" xmlns="http://www.w3.org/2000/svg" viewBox="0 0 850.4 850.4"><style>.st0{fill:#010202}.st1{fill:#e54e27}.st2{fill:#ec662b}.st3{fill:#ebebeb}.st4{fill:#fff}.st5{fill:#f0c727}.st6{fill:#fbde35}.st7{fill:#151515}.st8{fill:#020304}.st9{enable-background:new}.st10{fill:#1d59a6}.st11{fill:#3a99d5}.st12{fill:#e9e8e7}.st13{fill:#fcfcfb}.st14{fill:#e5e4e2}.st15{fill:#efeeee}.st16{fill:#e8e7e6}.st17{fill:#f9f9f8}.st18{fill:#1c1c1c}</style><path class="st0" d="M34.6 162.8h16.3V180h15v-17.2h16.3V215H65.9v-17.4H51V215H34.6m69-34.8H89.3v-17.4h45v17.4h-14.4V215h-16.3m37.8-52.2h17l10.5 18.4 10.5-18.4h17V215h-16.3v-25.8l-11.4 18.7-11.4-18.7V215h-16m63.1-52.2h16.3v34.9h23V215h-39.3"/><path class="st1" d="M34.1 518.8l-23.3-280h256.4l-23.3 279.8-105.1 31.1"/><path class="st2" d="M138.9 526V261.8h104.8l-20 238.8"/><path class="st3" d="M58.4 296.1H139v34.3H93.6l3 35.1H139v34.2H67.1m1.5 17.3h32.2l2.3 27.4 35.9 10.3v35.8l-65.9-19.7"/><path class="st4" d="M219.2 296.1h-80.4v34.3h77.4m-2.9 35.1h-74.5v34.3h39.6l-3.7 44.6-35.8 10.3v35.7l65.7-19.5"/><path class="st5" d="M325.5 587.7l-23.2-279h255.3l-23.3 278.9-104.5 31.1z"/><path class="st6" d="M429.7 594.6l84.5-25.1 19.9-238.3H429.7z"/><path class="st3" d="M429.7 523.5l-.2.1-35.6-10.3-2.2-27.3h-32.1l4.5 53.7 65.4 19.5.2-.1zm4.3-54.6v-34.2h-39.4l4.6-53.7 34.9-1-.1-35.6h-63.7l-2.3 25.2-7.5 90.1-.8 9.2h8.6z"/><path class="st4" d="M433.7 380h.2l34.9 2.2 3 35.4h32l-5.6-66.1-64.3-7.1h-.2z"/><path class="st4" d="M500.5 380.1l-2.7-35.7h-67.5v35.7h70.2m-70.9 54.6v34.2h39.3l-3.7 44.4-35.6 10.3v35.6l65.5-19.5.4-5.8 7.6-90 .7-9.2h-8.6z"/><path class="st7" d="M474.9 247.1h-21.2l22.1 25.6v12.2h-45.4v-14.3h22l-22-25.5v-12.3h44.5z"/><path class="st8" d="M422.3 232.9v52h-39.1v-17.2H406v-34.8h16.3z"/><g id="形状_1_19_" class="st9"><path class="st10" d="M588.2 240.2l24 281.5L716.1 552 820 521.7l24-281.5z" id="形状_1"/></g><g id="形状_1_18_" class="st9"><path class="st11" d="M716.1 263v264.8l.2.1 84.1-24.5L819.8 263z" id="形状_1_1_"/></g><g id="形状_1_17_" class="st9"><path class="st12" d="M715.8 455.8h-.1l-34.7-9.6-2.1-27.6h-32.2l4.2 53.4 65.2 21v-37.3z" id="形状_1_2_"/></g><g id="形状_1_16_" class="st9"><path class="st13" d="M716.1 366.6v33.8h.1l38.5.1-2.4 44.2-36.1 11.1h-.1V493h.1l65.4-20.7 8.5-105.7z" id="形状_1_3_"/></g><g id="形状_1_15_" class="st9"><path class="st14" d="M642.1 366.6l2.5 33.8h71.5v-33.8z" id="形状_1_4_"/></g><g id="形状_1_14_" class="st9"><path class="st15" d="M642.1 366.6h73.8l.2-.1v-33.9z" id="形状_1_5_"/></g><g id="形状_1_13_" class="st9"><path class="st4" d="M720.4 331l-4.3 2v33.5l76.3-35.5z" id="形状_1_6_"/></g><g id="形状_1_12_" class="st9"><path class="st16" d="M635.2 297.1l3.9 33.9h77v-33.9z" id="形状_1_7_"/></g><g id="形状_1_11_" class="st9"><path class="st17" d="M716.1 331l79.3-33.9h-79.3V331zm0 0h76.1l3.2-33.9-79.3 33.9z" id="形状_1_8_"/></g><g id="形状_1_10_" class="st9"><path class="st18" d="M640.2 215.5h39.5v-16.7h-22.6V182h22.6v-18.3h-39.5v51.8zm56.4-33.4c5.3 5.7 8 8.5 15.7 16.7h-15.7v16.7H736v-16.7L720.2 182H736v-18.3h-39.5c.1 0 .1 9.2.1 18.4zm95.4-18.4h-39.5V182c5.3 5.7 8 8.5 15.7 16.7h-15.7v16.7H792v-16.7l-15.8-16.8H792v-18.2z" id="形状_1_9_"/></g></svg>