<?xml version="1.0" encoding="utf-8"?>
<!-- Generator: Adobe Illustrator 19.2.0, SVG Export Plug-In . SVG Version: 6.00 Build 0)  -->
<svg version="1.1" id="Layer_1" xmlns="http://www.w3.org/2000/svg" xmlns:xlink="http://www.w3.org/1999/xlink" x="0px" y="0px"
	 viewBox="0 0 992.1 1133.9" style="enable-background:new 0 0 992.1 1133.9;" xml:space="preserve">
<style type="text/css">
	.st0{fill:#FDC839;}
	.st1{fill:#020304;}
	.st2{fill:#F9BE94;}
	.st3{fill:none;}
	.st4{fill:#1A4168;}
	.st5{fill:#F9BD8E;}
	.st6{fill:#2D2317;}
	.st7{fill:#8E5F46;}
	.st8{fill:#F6B386;}
	.st9{fill:#2D1C12;}
	.st10{fill:#3D2214;}
	.st11{fill:#FEFEFE;}
	.st12{fill:#F9C4A0;}
	.st13{fill:#2C2318;}
	.st14{fill:#F08575;}
	.st15{fill:#EF7A53;}
	.st16{fill:#F7AE7B;}
	.st17{fill:#FBFBFB;}
	.st18{fill:#4F2B15;}
	.st19{fill:#491015;}
	.st20{fill:none;stroke:#8F5F46;stroke-miterlimit:10;}
	.st21{opacity:0.2;fill:#DDDDDD;stroke:#7F7F7E;stroke-miterlimit:10;enable-background:new    ;}
	.st22{fill:#C2C2C0;}
	.st23{fill:#4F2A15;}
	.st24{fill:#050605;stroke:#000000;stroke-width:2;stroke-miterlimit:10;}
	.st25{fill:#893D23;}
	.st26{fill:#FFFFFF;}
	.st27{fill:none;stroke:#7F7F7E;stroke-width:0.1;stroke-miterlimit:10;}
	.st28{fill:#3A2B20;}
	.st29{opacity:0.25;fill:#FBFBFB;enable-background:new    ;}
	.st30{fill:#F7B282;}
	.st31{fill:#F4C4A4;}
	.st32{fill:#184B75;}
	.st33{fill:#010202;}
	.st34{fill:#C11B1A;}
	.st35{fill:#173860;}
	.st36{fill:#FAFAFA;}
	.st37{fill:#F7B487;}
</style>
<ellipse class="st0" cx="496.1" cy="590.6" rx="414.7" ry="405.5"/>
<polygon class="st1" points="621.5,581 554.3,547.2 539.3,599.7 581.8,619.7 "/>
<polygon class="st1" points="393.8,582.2 461,548.4 476,600.9 433.5,620.9 "/>
<path class="st2" d="M604.8,544.3c-2.6,27.8-2.8,58.1,0.9,90.3c0.5,4.2,1,8.4,1.6,12.5c-34.9,25.2-69.8,50.5-104.7,75.7
	c-29.6-24.2-59.3-48.5-88.9-72.7c0.5-4.6,1-9.2,1.4-14c2.7-32.2,1.7-62.4-1.5-89.9"/>
<path class="st3" d="M483.5,583.9"/>
<path class="st4" d="M608.7,631.7c42.5,1.6,146.7,11.4,193.3,83.9c19.3,30,23.4,69.9,30.9,148.4c6,63.2,6.6,115.7,6,152
	c-108.6-0.2-217.3-0.8-325.9-1.8c-110.7-1-221.4-2.4-332.1-4.2c-2.7-35.5-4.2-88.5,4-152c9.6-74.2,15.1-117.5,45.6-155.9
	c51.7-65.2,140.5-72.4,173.2-73.4c35.4,16.5,70.8,32.9,106.2,49.4C542.9,662.6,575.8,647.1,608.7,631.7z"/>
<path class="st5" d="M566.5,566.9"/>
<path class="st6" d="M574.8,365.2c0,0-30.4-2.7-50.1,6.8"/>
<path class="st6" d="M558.2,380.4c0,0,10.9-5.7,25.3-6.6"/>
<path class="st6" d="M452.2,374.3c0,0,7-6.9,12.3-7.8"/>
<g>
	<path class="st2" d="M512.9,598.6c-26.9,0.5-42.5-6.1-52-12.4c-6.6-4.4-16.7-11.5-36.2-26.5c-2.6-2-5.3-4.1-8.7-7.2
		c-6.6-6.1-8.2-9.1-19.3-23.3c-9.8-12.5-13.2-16.5-17.8-25.3c-0.9-1.8-1.9-4.5-2.8-6.3c-6.6-18.1-8.4-36.2-10.8-55.1
		c-0.6,0.2-1.6,0.2-2.9,0.2c-1.1,0-2.3-0.2-3.2-1.1c-4.7-5.4-0.9-11.8-1.9-18.1c-2-6.5-2.7-11.8-3-15.4c-0.4-5.9-0.7-20-0.8-25.2
		c0-1.1,0-2.8-0.7-4.8c-1.2-3.7-3.7-5.3-5.2-13.3c-1.3-6.9-2.8-14.3,1.2-18.9c4.3-5,12.7-4.3,14.5-4.1c0.1-3.8,0.4-9.6,1.1-16.5
		c0.5-5.1,1.4-8.7,1.3-10.2c-1.9-30.7-0.9-61.5,2.8-92.2c0.9-8.1,2.8-16.3,5.6-23.5c0.9-2.7,1.9-4.5,2.8-7.2s3.7-5.4,6.6-7.2
		c33.1-21.3,92.7-27.1,92.7-27.1c10.9,0,21.9,0,32.8,0"/>
	<g>
		<path class="st2" d="M509.2,157.7c46.7,13.5,93.5,26.9,140.2,40.4c7.5,11.8,7.3,127.1,7.3,127.1c0,4.9,0.1,9.8,0.1,14.8
			c1.3-0.2,8.4-1.3,12.3,2.9c1,1,1.5,2.1,1.9,2.9c1.4,3.4,1.5,6.9,1.2,10.4c-0.4,4.2-1.4,7.3-1.6,8.1c-4.4,13.6-5.2,15.5-5.6,17.1
			c0,0-0.1,0.5-0.3,1c-1.5,6.2,1.1,15.6-0.6,25.3c-0.4,2.3-0.8,3-1.9,8.5c-0.6,3-1,5.4-1.3,6.9c1.5,9.5,0,16.3-1.9,18.1
			c-0.9,0.9-2.1,1.1-3.2,1.1c-1.3,0-2.3-0.1-2.9-0.2c-4.1,27.8-8.5,48.2-11.2,55.1c-1.4,3.5-2.9,6.3-2.9,6.3
			c-2.6,4.9-6,9.3-7.4,11.1c-1.1,1.3-2,2.4-3.3,4.3c-1.8,2.7-2.4,4.4-6.6,10c-4.6,6.1-12.1,14.2-18.9,21.5c-1.3,1.4-3.2,3.4-5.5,5.9
			c-0.8,0.9-2.2,2.4-4.1,4.2c-7.5,7.3-11.5,8.8-23.1,17.7c-1.2,0.9-3.9,3-7.8,5.4c-1.5,0.9-3.1,1.9-4.7,2.8
			c-2.5,1.4-5.5,2.9-9.2,4.5c-5.1,2.1-17.9,5.9-35.5,7.8"/>
	</g>
</g>
<path class="st7" d="M352,369.6c-4-13.1-4.7-20.2-2.2-21.5c0.8-0.4,2-0.2,3.5,0.7c0,0,6.2,4.2,3.1,7.2c-2.1-2.6-3.7-3.7-4.6-3.3
	C350,353.4,350,359,352,369.6z"/>
<path class="st7" d="M664.7,367.2c4-13.1,4.7-20.2,2.2-21.5c-0.8-0.4-2-0.2-3.5,0.7c0,0-6.2,4.2-3.1,7.2c2.1-2.6,3.7-3.7,4.6-3.3
	C666.8,351,666.7,356.6,664.7,367.2z"/>
<path class="st8" d="M397.6,496.5c6.5,8.1,23.1,26.4,26.9,24.1c3.2-2-3.6-17.8-9.8-30.7c-1.2-2.1-3-5.2-4.9-9
	c-7-13.9-10.3-25.3-11.9-31c-10.9-37.6-11.7-33.8-14.3-46.8c-10.6-52.8,5.2-98.4,9.7-111.3c0.7-2,1.7-4.9,3.2-8.6
	c2.5-6.1,13.1-31.4,37.5-57.2c20.8-22,42.8-35.2,58.1-42.8c-13.4-1.5-34-2.2-57.9,3.4c-18.2,4.3-32.5,10.9-42.7,16.5
	c0,0-28.7,159.4-24.4,173.1C363,443,383.2,478.5,397.6,496.5z"/>
<line class="st3" x1="502" y1="686.5" x2="502" y2="1003.6"/>
<path class="st1" d="M510.1,677.8c12.7,15.5,25.4,31,38.2,46.6c-8.9,5.1-13.6,10.9-16.2,16.2c-0.7,1.5-1.1,2.6-1.9,2.8
	C527.7,743.7,522.4,732.3,510.1,677.8z"/>
<path class="st1" d="M509,677.5c-12.7,15.5-25.4,31-38.2,46.6c8.9,5.1,13.6,10.9,16.2,16.2c0.7,1.5,1.1,2.6,1.9,2.8
	C491.4,743.4,496.7,732,509,677.5z"/>
<path class="st9" d="M473.8,319.5c0.6-1.1,1.8-3.7,1.4-7.1c-0.6-4.3-3.5-6.9-4.4-7.7c-1.1-1-2.3-1.7-3.1-2.1
	c0.3,0.3,0.5,0.7,0.8,1.1c0.6,0.9,1.1,1.8,1.4,2.6c0,0-6.4-5.4-11.4-5.7c0,0,2.2,0.9,1.7,2c-2.5-0.8-5.9-1.9-10-2.9
	c-3.5-0.9-8.7-2.1-15.3-2.7c-2.7-0.3-7.4-0.7-13-0.3c-5,0.3-13,1.5-22.3,5.6c0,0,6.2-1.4,7.8-0.2c-3.8,0.4-10.7,1.8-17.3,6.7
	c-2.5,1.9-4.4,3.9-5.9,5.6c-1.3,1.5-2.6,3.1-3.9,4.6c3.7-1.3,8.7-2.9,15-4.3c3.6-0.8,14-3,28-3.2c6-0.1,12.9,0.2,20.3,1.1
	C455.6,314,465.7,316.7,473.8,319.5z"/>
<path class="st10" d="M448.6,479.4l121.7,0.4c0,0-39.9,36-54.9,32.6C515.3,512.4,450.9,498,448.6,479.4z"/>
<path class="st11" d="M540.2,483.6c-8.8-1.9-17.1,0-17.1,0c-3.5,1.1-14-0.3-14-0.3c-2.9,1.5-13.3,0.3-13.3,0.3
	c-9.7-2.1-17.1,0-17.1,0c-5.8,1.1-12.8,0-12.8,0c-3.6-0.8-7.3-1.8-11.2-3c-1.8-0.5-3.6-1.1-5.3-1.6c5.3,4.5,13.8,10.6,25.6,15.2
	c4.8,1.9,17.1,6.2,33.6,6.2c5.5,0,24.9-0.4,45.7-11.6c6.1-3.3,10.9-6.7,14.1-9.3C558.8,480.7,549.5,482.1,540.2,483.6z"/>
<path class="st3" d="M409.5,534.1"/>
<path class="st3" d="M462.9,155.9"/>
<path class="st12" d="M597.5,518.1c28.2-27.2,39-52.5,43.7-69.3c1.8-6.4,3.4-13.9,8.1-62.7c2.2-22.9,3.9-41.8,5-54.8
	c0.6-2.7,1.3-6.7,1.9-11.4c0.7-5.6,3-27-5-62.7c-3.6-15.8-9.8-37.2-21.2-61.5c-4.5,6.2-14.8,22-15.6,44.6
	c-0.6,18.6,5.5,32.8,9.1,39.5c6.5,9.7,14.4,24.3,18.4,43c4.9,22.9,1.8,41.3,0.1,45.6c0,0.1-0.1,0.3-0.2,0.6
	c-1.5,3.8-1.9,5.8-2.8,8.1c-0.5,1.2-1.1,2.4-2.3,4.7c-2.4,4.6-8.8,16-9,16.4c-0.1,0.1-0.1,0.3-0.1,0.3c0,0.1-0.1,0.2-0.1,0.3
	c-0.5,1.2-1.2,3-4.3,11.5c-4,10.8-4.5,12-4.6,12.6c-3.6,11.4-5.3,22.1-8.5,39.9C607.7,475.7,603.8,494.7,597.5,518.1z"/>
<path class="st9" d="M538.4,318.4c-0.6-1.1-1.8-3.7-1.4-7.1c0.6-4.3,3.5-6.9,4.4-7.7c1.1-1,2.3-1.7,3.1-2.1
	c-0.3,0.3-0.5,0.7-0.8,1.1c-0.6,0.9-1.1,1.8-1.4,2.6c0,0,6.4-5.4,11.4-5.7c0,0-2.2,0.9-1.7,2c2.5-0.8,5.9-1.9,10-2.9
	c3.5-0.9,8.7-2.1,15.3-2.7c2.7-0.3,7.4-0.7,13-0.3c5,0.3,13,1.5,22.3,5.6c0,0-6.2-1.4-7.8-0.2c4.5,0.8,12.1,2.8,17.4,7.5
	c1.1,1,3.2,3.1,5.3,5.6c2,2.4,3.6,4.5,4.7,6c-3.4-1.9-8.6-4.4-15.3-6.4c-10.3-3-18.7-3.1-28-3.2c-6-0.1-12.9,0.2-20.3,1.1
	C556.7,312.9,546.5,315.6,538.4,318.4z"/>
<path class="st13" d="M620.3,213.8c-25.1-21.6-70.3-9.3-70.3-9.3c-15.9,2.1-38.2,2.8-63.4-3.2c-9-2.2-17-4.9-24.1-7.8
	c-4.9-1.1-12.7-2.1-21.5,0c-4.6,1.1-17.6,4.9-34.2,27.1c-5.3,7.1-14.3,21.3-23.4,47.5c-10.1,28.9-11.8,54.2-13.8,84.1
	c-1,15.3-1.3,28.1-1.2,37.1c-1.4-10.4-2.4-21.9-2.5-34.3c0-5.4,0.1-10.7,0.3-15.7c-3.7-27.5-6.2-57.5-6.7-89.6
	c-0.2-13.2,0-26,0.4-38.4c-0.5,0.9-1,1.8-1.4,2.7c0.1-1,0.2-2.1,0.4-3.1c2.1-15.4,6.1-29.6,11.4-42.6l1.6-9.5c0,0-0.5,7.5,0.3,8.3
	c4.4-7.9,14.9-26.1,28.7-41c2.7-2.9,7.8-8.1,14.1-13.9c7.6-6.9,13.5-11.5,15-12.7c4-3.1,7.4-5.5,10.1-7.3c0,0,7.4-7.3,15.2-9.5
	c0,0-17.5,10.8-15.9,13.9c0,0,15.9-14.8,26.9-16.6c0,0-11.2,5-13.1,7.1c0,0,26.7-12.4,32.3-9.9c0,0-16.2,3.5-16.1,4.7
	c0,0,31.5-8,35.6-7.7s-36.7,10.1-43.1,16.7c3.5-1.5,7.1-3,10.9-4.4c10.7-4,20.8-6.8,30.1-8.9c-8.4,3.2-14.7,6.7-19,9.5
	c-2.1,1.3-5.8,4.1-5.6,4c4.2-2.7,9.2-5.5,15-7.9c17.6-7.3,34-7.8,44.4-7.1c0,0-20.4,1.4-23.9,6.8c0,0,29.3-7.5,54.1-3.4
	c0,0-8.4,0.9-8.9,2.3c0,0,10.1-3.2,25.8,6.1c0,0-45-2-72.4,16.3c0,0,25.3-11.3,28.3-9.9c0,0-7.3,2.3-8,4.3c0,0,59.5-12,64.4-5
	c0,0-12.4-2.9-14.8,1.6c4.9-0.7,13.6-1.3,23.7,1.6c0.2,0.1,0.4,0.1,0.5,0.2c0.2,0.1,0.4,0.1,0.6,0.2c7.4,2.3,12.9,5.7,16.4,8.3
	c-1.9-0.1-4-0.2-6.1,0.7c-3.7,1.5-8.7,5.4-13.8,14.9c1.8-2,4.1-4.3,7-6.6c4.4-3.4,8.6-5.6,12-7c-1.7,0.5-6.2,2.1-9.4,6.6
	c-1.5,2.1-2.2,4.2-2.5,5.7c0.7-1.7,1.9-4.1,4.3-6.4c5.4-5.1,12.3-5.2,14-5.2c0,0-12.3-0.2-17.8,14.2c0,0,11.6-17,20.5-13.3
	c0,0-17.3,14.8-15.3,22.9l16.4-21.5c0,0-5.2,12.1-3.9,14.5c0.3-1.3,0.9-3.7,2.8-6c2.9-3.6,6.8-4.8,8.1-5.1c-1.7,1.5-3.7,3.7-5.6,6.6
	c-2.3,3.6-3.4,6.9-4.1,9.3c0.9-4.6,4.2-8.5,8.7-9.9c5.1-1.7,10.8-0.1,14.4,3.9c-1.4-0.1-7.5-0.5-13.1,3.6s-6.9,9.8-7.2,11.1
	c0,0,9.7-16.3,29.7-2.4c-0.9-0.5-4.9-2.6-9.8-1.5c-4.7,1.2-8.5,5-9.6,10c0,0,7.5-11.4,10.5-7.9c0,0-2.3,0.3-3,2.4c0,0,12-3.3,15-0.5
	c0,0-5.8-3.2-11.6,7.4c0,0,3.1-3.5,3.7-2.9c0,0-13.3,13.7-13.3,17.6c0,0,8-17.9,24.8-16.6c0,0-10.1-0.2-13.7,6.9
	c0,0,11.2,2.6,11.9,12.7c0,0-2.2-3.9-3-2.4c0,0,4.1,4.8,4.2,8.9c0,0,10.9,84.8-0.6,120.1c-1.1,3.4-4.2,15.6-7.7,32.5
	c-5.7,28.3-7.4,48.3-7.9,54.1c-0.6,8.3-0.8,13.6-0.9,13.6c-0.3,0-0.1-16.9,2.1-95.1c0,0-1.9-33.7-5-44.6
	C648.7,250.3,649.3,238.9,620.3,213.8z"/>
<g>
	<path class="st14" d="M467,485.5c6.6,0.7,12.2,0,12.2,0c3.1-0.4,4.8-0.9,8.3-0.9s5.3,0.5,8,0.9c3,0.4,7.5,0.7,13.4-0.3v-8.9
		c-16.9-5.8-30-1.5-30-1.5c-22.9,7-33.6,2.6-33.6,2.6c6.3,12.3,13.5,21.2,18.9,26.9c7.3,7.8,14.3,14.8,25.9,19.2
		c7.5,2.8,14.4,3.4,19,3.5c-0.1-8.3-0.2-16.6-0.3-24.9c-5.2,0-12.3-0.4-20.6-2.3c-21.4-5-36-17.4-35.7-18
		C452.7,481.2,457.7,484.6,467,485.5z"/>
	<path class="st14" d="M550.1,485.5c-6.6,0.7-12.2,0-12.2,0c-3.1-0.4-4.8-0.9-8.3-0.9s-5.3,0.5-8,0.9c-3,0.4-7.5,0.7-13.4-0.3v-9
		c16.9-5.8,30-1.5,30-1.5c22.9,6.9,33.6,2.6,33.6,2.6c-6.3,12.2-13.4,21.1-18.9,26.9c-7.8,8.4-14.6,15.5-26,19.7
		c-7.3,2.6-13.9,3.1-18.4,3c-0.1-8.3-0.1-16.6-0.2-24.9c5.2,0,12.3-0.4,20.6-2.3c21.4-5.1,36-17.4,35.7-18S559.3,484.6,550.1,485.5z
		"/>
</g>
<path class="st15" d="M510.8,525.1"/>
<path class="st15" d="M481.8,516.8"/>
<path class="st15" d="M524.9,522.4"/>
<path class="st15" d="M509.4,529.3"/>
<path class="st11" d="M541,500.5"/>
<path class="st3" d="M462.7,347.6c-3.9,2.1-8.7,4.2-14.3,5.8c-16.5,4.6-31,2.1-38.8,0.1c0,0-9.4-12.2,21.7-17.2
	c2.7,0,5.8,0.2,9.1,0.8C450.9,339.1,458.4,344.2,462.7,347.6z"/>
<path class="st3" d="M555.6,347c3.9,2.1,8.7,4.2,14.3,5.8c16.5,4.6,31,2.1,38.8,0.1c0,0,9.4-12.2-21.7-17.2c-2.7,0-5.8,0.2-9.1,0.8
	C567.4,338.5,559.9,343.5,555.6,347z"/>
<g>
	<path class="st16" d="M396.6,356.7c0.6-4.8,2.3-12.9,8.7-19.7c13.2-14,35.6-10.6,43.7-9.3c17.6,2.7,29.8,11.6,35.8,16.9
		c-1,2.7-3.9,9.6-11.3,14.4c-13.3,8.5-28.6,2.1-29.7,1.6c2.3,0.2,10.4,0.8,17.8-4.3c1.5-1,7.5-5.2,6.6-7.5
		c-1.2-2.9-12.6-0.9-36.1,2.7C416.8,353.9,404.5,355.6,396.6,356.7z"/>
	<path class="st17" d="M462.4,347.5c-3.9,2.1-8.7,4.2-14.3,5.8c-16.5,4.6-31,2.1-38.8,0.1c0,0-9.4-12.2,21.7-17.2
		c2.7,0,5.8,0.2,9.1,0.8C450.6,339,458.2,344.1,462.4,347.5z"/>
	<path class="st18" d="M420.5,346.4c0-3.7,1.8-6.9,4.6-9c1.8-0.5,4.2-1,7.1-1c2.6-0.1,4.9,0.2,6.7,0.6c0.9,0.6,3.7,2.8,4.8,6.2
		c0.3,1.1,0.5,2.2,0.5,3.3c0,3.5-1.6,6.6-4.2,8.7c-2.2,0.3-4.7,0.6-7.4,0.8c-2.3,0.1-4.6,0.1-6.6,0.1c-0.9-0.6-3.9-2.7-5-6.2
		C420.5,348.1,420.5,346.6,420.5,346.4z"/>
	<path class="st19" d="M402.5,353.7c0.8-2.7,2.4-6.8,6.1-10.5c6.9-6.9,16.2-7.5,22.7-7.8c5.4-0.2,15.1,0.3,25.2,5.5
		c3.8,2,6.9,4.2,9.3,6.3c-4.2,2-10.2,4.5-17.8,6.4c-5.1,1.3-10.5,2.2-10.6,1.9c-0.1-0.3,3.9-1.3,9.4-3.2c5.7-2,10.4-3.9,13.5-5.3
		c-17.8-11.4-30.5-9.8-30.5-9.8c-5,0.6-14,2.3-19.6,8.2c-2.1,2.2-2.2,3.6-2.2,4.2c0,0.1,0,0.1,0,0.2l0,0c0,0.1,1.3,3.5,5.5,4.5
		c1,0.2,1.8,0.2,1.8,0.3c0,0.1-3.9,0-8.1-0.4C405.3,354.2,403.6,353.9,402.5,353.7z"/>
</g>
<path class="st20" d="M363.3,341.8c0,0-21.6-5.1-15.5,23.2c0,0,5.1,9.7,5.8,26.4c0,0-0.2,22.5,2.1,25.7c0.3,1,0.8,2.7,1,4.7
	c0.6,4.6-0.3,6.4,0.1,12.5c0.1,1.7,0.4,4.5,2.4,6.7c0.2,0.2,0.3,0.4,0.5,0.5c0.2,0.2,0.5,0.4,0.9,0.5c0.8,0.3,1.4,0.3,1.9,0.3
	c1.1,0,2-0.4,2.6-0.7"/>
<path class="st16" d="M621.2,356.1c-0.6-4.8-2.3-12.9-8.7-19.7c-13.2-14-35.6-10.6-43.7-9.3c-17.6,2.7-29.8,11.6-35.8,16.9
	c1,2.7,3.9,9.6,11.3,14.4c13.3,8.5,28.6,2.1,29.7,1.6c-3.8,0-10.6-0.5-17.8-4.3c-3.4-1.8-6.3-3.3-6.1-4.5c0.8-3.6,28.3-0.9,35.6-0.2
	C600.9,352.4,613.1,354.5,621.2,356.1z"/>
<path class="st17" d="M555.4,346.9c3.9,2.1,8.7,4.2,14.3,5.8c16.5,4.6,31,2.1,38.8,0.1c0,0,9.4-12.2-21.7-17.2
	c-2.7,0-5.8,0.2-9.1,0.8C567.2,338.4,559.7,343.5,555.4,346.9z"/>
<path class="st18" d="M597.1,345.8c0-3.7-1.8-6.9-4.6-9c-1.8-0.5-4.2-1-7.1-1c-2.6-0.1-4.9,0.2-6.7,0.6c-0.9,0.6-3.7,2.8-4.8,6.2
	c-0.3,1.1-0.5,2.2-0.5,3.3c0,3.5,1.6,6.6,4.2,8.7c2.2,0.3,4.7,0.6,7.4,0.8c2.3,0.1,4.5,0.1,6.6,0.1c0.9-0.6,3.9-2.7,5-6.2
	C597.1,347.5,597.1,346,597.1,345.8z"/>
<path class="st19" d="M615.4,353.1c-0.8-2.7-2.4-6.8-6.1-10.5c-6.9-6.9-16.2-7.5-22.7-7.8c-5.4-0.2-15.1,0.3-25.2,5.5
	c-3.8,2-6.9,4.2-9.3,6.3c4.2,2,10.2,4.5,17.8,6.4c5.1,1.3,10.5,2.2,10.6,1.9c0.1-0.3-3.9-1.3-9.4-3.2c-5.7-2-10.4-3.9-13.5-5.3
	c17.8-11.4,30.5-9.8,30.5-9.8c5,0.6,14,2.3,19.6,8.2c2.1,2.2,2.2,3.6,2.2,4.2c0,0.1,0,0.1,0,0.2l0,0c0,0.1-1.3,3.5-5.5,4.5
	c-1,0.2-1.8,0.2-1.8,0.3c0,0.1,3.9,0,8.1-0.4C612.6,353.6,614.2,353.3,615.4,353.1z"/>
<path class="st21" d="M484.6,355.5c-0.1-3.3-10.2-16.8-10.2-16.8c-17.6-24.6-53.9-19.2-53.9-19.2c-19.8-0.9-37.5,6.9-45.2,20.7
	c-3.4,6.1-4.3,12.4-4.2,17.3c0,0,0.9,48.5,50.9,56.6c3.1,0.5,23.4,2.5,41.2-11C486.1,385.7,484.8,358,484.6,355.5z"/>
<path class="st3" d="M357.8,340.3c-1.3,0.1-6.5,0.9-9.6,5.1c-2.6,3.6-2.3,7.8-2.1,10.8c0.1,2,0.5,3.7,0.9,4.8c0.3,1.7,0.6,3.1,0.8,4
	c0.5,1.7,1,3.2,3.7,9.3c0.4,0.9,0.9,2.1,1.3,3c0.2,1.8,0.4,4.6,0.6,8c0.1,1.9,0.2,2.6,0.2,6.1c0,0,0.2,9.4,0.7,15.7
	c0.2,2.3,0.5,4.7,0.9,7.4c0.2,1.2,0.4,2.1,0.5,2.6c0.3,1.6,0.7,3.6,1.2,6.1c0.2,1.9,0.2,3.4,0.1,4.6c-0.2,4.8-1.1,6.9,0,9.6
	c0.6,1.4,1.4,2.4,2,2.9c0.7,0.2,1.4,0.4,2.1,0.5"/>
<path class="st22" d="M489.1,341.5c0,0,16.1-7.1,36.3-0.3l-0.4,6.3c-14.1-4.2-36.2,0-36.2,0L489.1,341.5z"/>
<path class="st1" d="M489.2,351.6c0,0.1,0,0.4,0,0.9c-0.1,0.7-0.4,1.2-0.7,1.6c-0.7,1-1.5,1.9-2.1,2.5c-0.6,0-1.2,0-1.9,0
	c-2.6-6-10.2-21-27.2-29.8c-14.1-7.3-27-7.1-34.8-6.8c-19.9,0.7-37.5,9.3-44,17.9c-3.3,4.3-5.6,7.4-6.1,12.1
	c-0.4,3.5,0.4,6.6-1.2,7.5c-1.8,1-5.4-1.3-5.6-1.8c-2.8-5.4-2.8-12.7-8.4-15.4c-1-0.5-3.7-2.1-5.3-5.3c-2.3-4.7-0.4-9.2-0.1-10
	c3.8-0.2,9.4-0.5,16.2-1.4c11.1-1.5,17.8-3.3,25-5c17.8-4.1,30.7-7,46.7-5.4c1.2,0.1,15.3,1.6,26.2,7.2c1.5,0.7,5,2.7,9.2,5.6
	c1.3,0.9,3.4,2.6,7.7,6c2,1.6,3.7,3,5,5.3c0.2,0.4,0.8,1.5,1.3,3C490.2,345,489,349.3,489.2,351.6z"/>
<path class="st3" d="M656.8,338.8c0.7-0.2,6.8-1.6,11.3,2.2c3.3,2.8,3.9,6.8,4.1,8.5c0.3,2.2,0.1,4.1-0.2,5.3
	c-0.7,3.4-1.6,6.8-2.6,10.4c-1.5,5.7-3.4,12.2-4.9,15.8c-0.3,1.4-0.6,3.5-0.8,6c0,0.6,0,1.4,0,2.9c0.2,4.2,0.6,5,0.7,7.7
	c0.2,4-0.5,7.3-1,9.4c-0.4,2-0.6,1.9-1.1,4.3c-0.2,1.2-0.4,2.4-1.1,7.1c-0.2,1.6-0.4,2.9-0.5,3.8c0,2,0.1,3.6,0.2,4.7
	c0.2,3,0.4,4.9,0.1,7.5c-0.1,0.9-0.3,2.1-1.1,3.4c-0.4,0.7-0.9,1.2-1.2,1.6"/>
<path class="st21" d="M643,356.5c-0.9-47.2-63-39.1-63-39.1c-5.4,0.2-13.6,1.2-22.3,5.4c-19.1,9.2-26.2,26.5-28,31.3
	c-0.2,2.5-1.5,30.3,21.4,47.6c17.8,13.5,38.1,11.5,41.2,11c50-8.1,50.9-56.6,50.9-56.6L643,356.5z"/>
<path class="st1" d="M524.9,350.7c0,0.1,0,0.4,0,0.9c0.1,0.7,0.4,1.2,0.7,1.6c0.7,1,1.5,1.9,2.1,2.5c0.6,0,1.2,0,1.9,0
	c2.6-6,10.2-21,27.2-29.8c14.1-7.3,27-7.1,34.8-6.8c18.4,0.7,39.4,8,44,17.9c4.8,10.2,5.2,13.3,5.2,13.3c0.4,2.7,0.4,5.5,2.1,6.3
	c2,1,5.3-1.2,5.6-1.8c2.7-5.3,1.7-10.4,6.4-14c0.7-0.5,0.9-0.5,2-1.4c1-0.8,4-2.8,5.3-5.3c2.3-4.7,0.4-9.2,0.1-10
	c-3.8-0.2-9.4-0.5-16.2-1.4c-11.1-1.5-17.8-3.3-25-5c-17.8-4.1-30.7-7-46.7-5.4c-1.2,0.1-15.3,1.6-26.2,7.2c-1.5,0.7-5,2.7-9.2,5.6
	c-1.3,0.9-3.4,2.6-7.7,6c-2,1.6-3.7,3-5,5.3c-0.7,1.2-1,2.2-1.3,3c-0.1,0.3-0.1,0.5-0.1,0.6C525,345.8,525,349.7,524.9,350.7z"/>
<path class="st22" d="M358.6,334.3c0,0,2.9-1.9,7.1-1.9c0,0,6.4-0.3,8.8,2.4c0,0-1.5,3.4-8.3,3.2c-1.1-0.1-3.1-0.4-5.1-1.6
	C359.9,335.7,359.1,334.9,358.6,334.3z"/>
<path class="st22" d="M654,329.6c0,0-2.9-1.9-7.1-1.9c0,0-6.4-0.3-8.8,2.4c0,0,1.5,3.4,8.3,3.2c1.1-0.1,3.1-0.4,5.1-1.6
	C652.6,331.1,653.4,330.3,654,329.6z"/>
<path class="st3" d="M409.5,315.8"/>
<path class="st3" d="M350.3,320.7"/>
<path class="st23" d="M467.9,310.7"/>
<path class="st24" d="M498.2,718.5c0,97.4-0.1,194.8-0.1,292.2"/>
<path class="st3" d="M619,304.2"/>
<path class="st8" d="M511.4,449L511.4,449c0,0-0.9,0.1-1.8,0c-5.4-0.2-11.2-2.6-11.3-2.6l0,0c-3.9-1.4-6.6-2.6-7-2.7
	c-4.1-1.6-6.9-1.4-11-2.9c-8.1-3.1-12.4-10-13.4-13.1c-0.9-2.8-0.7-6.9-0.7-6.9l0,0c0,0,0,2.6,0.4,4c1.1,3.5,7,4.8,8.7,5.2
	c4.9,1.1,9.1,0,11.4-0.8c0.4,0,1,0.1,1.8,0.1c0,0,2.2,0.1,4,0.3c2.5,0.3,5,1.3,6.9,2c5.7,2.3,7.1,4.2,11.5,4.4c0.7,0,1.2,0,1.5,0
	c4.9-0.2,7.1-2.9,10.9-4.7c3.9-1.9,7.6-2,11-2.1c5.6-0.2,5.8,1.3,10.6,0.9c1.9-0.2,9.3-1.1,11.4-5.5c0.6-1.4,0.7-2.9,0.7-2.9
	s-0.3,3-1.2,5c-2.7,6-8.3,9.6-13.1,12.2c-8.3,4.4-9.2,2-17.5,6.3c-1.6,0.8-5.4,2.9-11,3.7C513.1,448.9,512.1,449,511.4,449z"/>
<path class="st25" d="M523.5,431.4c0,0,5.6-7.2,13-2.3C536.5,429.1,534.3,430.5,523.5,431.4z"/>
<path class="st3" d="M478.4,436.7c1.3,0.3-4.7-0.3-7.7-2.7c-3.7-2.9-5.1-7.4-4.8-10.6c0-0.2,0-0.4,0.1-0.5c0.4-3.1,1.7-5.4,2.7-6.8
	C468.6,416.2,460.6,432.1,478.4,436.7z"/>
<path class="st3" d="M543,437c-0.1,0-0.2,0.1-0.2,0.1s3.9-0.9,6.9-3c3.5-2.5,6.1-6.7,5.8-10.4c0-0.2,0-0.3-0.1-0.5
	c-0.4-3.1-1.7-5.4-2.7-6.8c0.2,0.5,3.8,8.8-0.2,14.2C552.6,430.6,549.9,434.2,543,437z"/>
<path class="st25" d="M499.1,431.6c0,0-5.6-7.2-13-2.3C486.1,429.3,488.3,430.7,499.1,431.6z"/>
<path class="st3" d="M527.1,445.5"/>
<path class="st3" d="M413.8,340"/>
<ellipse class="st1" cx="432.4" cy="345.9" rx="4.2" ry="4.1"/>
<ellipse class="st1" cx="585.1" cy="346.1" rx="4.2" ry="4.1"/>
<path class="st26" d="M445.3,348.2v-5c-2.4,0.8-4.8,1.5-7.3,2.3C440.5,346.4,442.9,347.3,445.3,348.2z"/>
<path class="st26" d="M598.7,343.3v5c-2.4-0.8-4.8-1.5-7.3-2.3C593.9,345.1,596.3,344.2,598.7,343.3z"/>
<path class="st8" d="M487.5,596.4c0.3,2.4-10.4,0.2-18,6c-7.3,5.6-9.6,12.9-10.3,15.2c2.8,8.6,5.6,20.2,6.2,34
	c0.4,8.8-0.1,16.6-1,23.2l-50.8-24.6l1.3-99.2C414.9,551,485.9,581.2,487.5,596.4z"/>
<line class="st3" x1="409.5" y1="147.5" x2="418.4" y2="138.5"/>
<path class="st27" d="M651.5,223.7c0,0,11.2,27.1,8.1,41"/>
<g>
	<path class="st28" d="M651.3,439.9c0-8.7-0.2-13.1-0.2-20.7c-0.1-10.8-0.2-23.7-0.1-33c0,0.1-0.1,0.3-0.1,0.4
		c-0.1,0.2-0.4,0.6-0.5,1.3c-0.1,0.7,0.2,1.6,0,2.3c-0.2,0.6-0.5,0.8-0.5,1.6c0,0.6,0,1.2,0,1.8c0,1.3,0.3,3,0,4.3
		c-0.2,1.1-1,2.2-1.3,3.2c-0.4,1.1-0.7,2.2-0.9,3.3c-0.4,1.5-0.7,3-1.1,4.5c-0.2,0.7-0.4,0.8-0.4,1.6c0,0.7,0.1,1.5-0.1,2.1
		c-0.4,1.5-0.6,3.1-0.8,4.6c-0.1,0.7-0.3,1.4-0.5,2.1c-0.3,1.2-0.3,2.5-0.6,3.7c-0.6,2.6-1,5.3-1.8,7.8c-0.4,1.1-0.8,2.1-1.3,3.2
		c-0.6,1.4-1.2,3.1-2,4.4c-0.9,1.5-1.6,3-2.5,4.4c-1,1.6-1.3,3.5-2,5.2c-0.4,1-0.7,2-1.1,3c-0.3,0.7-0.3,1.4-0.5,2
		c-0.4,0.8-0.9,1.4-1.2,2.3c-0.3,1-0.8,1.8-1.1,2.8c-0.5,2.1-1.3,4.1-2.1,6.2c-0.3,0.7-0.2,1.3-0.6,2c-0.3,0.5-0.9,1.1-1.3,1.7
		c-0.8,1.2-1.4,2.5-2.2,3.6c-1,1.4-2.1,2.7-2.8,4.2c-0.9,1.7-1.9,3.4-2.9,5.1c-1.3,2-2.1,4.4-3.3,6.3c-0.2,0.3-0.5,0.4-0.7,0.7
		c-0.1,0.2-0.4,0.8-0.4,0.9c-0.4,0.7-1,1.4-1.4,2.1c-0.2,0.3-0.4,0.7-0.6,1c-0.1,0.2-0.6,0.3-0.7,0.5c-0.4,0.8-0.5,1.6-1.1,2.3
		c-0.9,1.1-1.8,2.2-2.6,3.4c-0.7,1.1-1.4,2.1-2.2,3.1c-1,1.2-2.4,2.7-3.6,3.8c-0.1,0.1-0.6,0.1-0.8,0.3c-0.4,0.3-0.6,0.8-0.9,1.2
		c-0.3,0.4-0.6,0.5-0.9,0.8c-0.3,0.2-0.7,0.8-1,0.9c-0.7,0.4-1.6,0.5-2.4,1c-0.8,0.6-1.4,0.9-2.2,1.4c-1,0.5-2,1.2-2.9,1.9
		c-1,0.7-2.2,1.2-3.2,1.9c-0.5,0.4-0.8,0.9-1.2,1.3c-0.6,0.5-1.3,0.9-1.9,1.4c-1.1,0.9-2.1,1.6-3.3,2.1c-1.1,0.5-2,1.5-3.1,2
		c-1.4,0.6-2.7,1.2-4,1.9c-0.6,0.3-1,0.3-1.6,0.5c-0.7,0.3-1,0.9-2,0.9c0.6-0.6,1.1-1.3,1.7-1.9c1-0.9,1-1.2,1.5-2.3
		c0.3-0.6,1-1.1,1.3-1.6c0.5-0.8,0.8-1.7,1.3-2.5c1-1.6,2.1-3.2,2.9-5c0.9-1.9,1.9-4.1,3.3-5.9c1.5-2.1,2.7-5.1,3.2-7.6
		c0.4-2.2,1.5-4.1,1.5-6.4c0-0.8,0.3-1,0.4-1.6c0.3-1.1,0.1-2.5,0-3.7c0-1,0.4-1.8,0.5-2.8c0-0.4,0-0.8,0-1.1c0-0.7,0.3-1.2,0.4-1.6
		c0.3-1.5,0.1-3,0.5-4.4c0.2-0.9-0.1-1.8,0.1-2.7c0.2-0.9,0.7-1.5,0.5-2.5c0,0,0-0.2-0.1-0.5c-0.8-3.4-4.1-6.9-4.1-6.9
		c-1.3-1.4-2.5-2.3-3.5-3.1c-2.4-1.8-4.5-3-6-3.7c-1-0.5-4.1-2-8.7-3.1c-1-0.2-1.3-0.3-7.8-1.2c-7.6-1.1-7.9-1.2-9.1-1.2
		c-1.6-0.1-1.4,0-9.1,0.3c-5.3,0.2-5.6,0.2-7.5,0.3c-3.9,0.3-6.8,0.7-8.1,0.9c-3.6,0.5-9.2,1.2-17.5,1.6c-0.3-0.1-0.8-0.1-1.4-0.2
		c-2.8-0.4-3.9-0.6-5.2-0.8c-2.3-0.4-3.4-0.6-4.7-0.9c-4.1-1.1-4.7-1.9-8.4-2.4c-2.5-0.4-4.5-0.3-7.8-0.3s-3.9,0.2-8.1,0.3
		c-3.4,0.1-3.5-0.1-5.9,0c-2.2,0.1-5.7,0.2-9.7,0.9c-3.3,0.5-6.6,1.1-10.6,2.7c-1.6,0.6-0.4,0.3-7.5,3.9c-1.6,0.8-3.2,1.6-4.6,3.3
		c-0.3,0.3-0.6,0.8-1.5,2.6c-1.9,3.6-2.8,5.4-3.1,7.1c-0.3,1.5-0.2,2.9-0.1,5.6c0.1,1.5,0.2,2.7,0.5,4.4c0.4,2.9,0.6,3.3,0.8,5.6
		c0.3,2.6,0.2,2.8,0.4,4.8c0.1,0.7,0.5,3.5,1.5,6.9c1,3.2,1.8,5.7,3.2,7.6c1.4,1.8,2.3,3.9,3.3,5.9c0.8,1.7,1.9,3.4,2.9,5
		c0.5,0.8,0.8,1.7,1.3,2.5c0.4,0.5,1.1,1,1.3,1.6c0.5,1.1,0.5,1.4,1.5,2.3c0.6,0.6,1.1,1.2,1.7,1.9c-0.9,0-1.2-0.6-2-0.9
		c-0.6-0.2-1-0.2-1.6-0.5c-1.3-0.7-2.6-1.3-4-1.9c-1.2-0.6-2-1.5-3.1-2c-1.2-0.6-2.2-1.3-3.3-2.1c-0.6-0.5-1.4-0.9-1.9-1.4
		c-0.4-0.4-0.7-1-1.2-1.3c-1-0.7-2.1-1.2-3.2-1.9c-0.9-0.7-1.9-1.4-2.9-1.9c-0.9-0.4-1.4-0.8-2.2-1.4c-0.7-0.5-1.6-0.6-2.4-1
		c-0.3-0.2-0.7-0.7-1-0.9c-0.4-0.3-0.6-0.4-0.9-0.8c-0.4-0.4-0.6-0.9-0.9-1.2c-0.2-0.2-0.7-0.1-0.8-0.3c-1.2-1.1-2.6-2.5-3.6-3.8
		c-0.8-1-1.5-2-2.2-3.1c-0.8-1.2-1.7-2.3-2.6-3.4c-0.6-0.7-0.7-1.6-1.1-2.3c-0.1-0.3-0.6-0.3-0.7-0.5c-0.2-0.3-0.4-0.7-0.6-1
		c-0.4-0.7-1-1.3-1.4-2.1c-0.1-0.1-0.3-0.7-0.4-0.9c-0.2-0.3-0.5-0.4-0.7-0.7c-1.2-1.9-2.1-4.3-3.3-6.3c-1-1.6-2.1-3.3-2.9-5.1
		c-0.7-1.5-1.8-2.8-2.8-4.2c-0.8-1.1-1.4-2.4-2.2-3.6c-0.4-0.6-0.9-1.1-1.3-1.7s-0.3-1.2-0.6-2c-0.8-2-1.5-4.1-2.1-6.2
		c-0.2-1-0.7-1.9-1.1-2.8c-0.3-0.9-0.9-1.5-1.2-2.3c-0.3-0.6-0.3-1.3-0.5-2c-0.4-1-0.7-2-1.1-3c-0.7-1.7-1-3.6-2-5.2
		c-0.9-1.4-1.6-3-2.5-4.4c-0.8-1.3-1.4-3-2-4.4c-0.5-1.1-0.9-2.1-1.3-3.2c-0.8-2.4-1.1-5.2-1.8-7.8c-0.3-1.2-0.2-2.4-0.6-3.7
		c-0.2-0.7-0.4-1.4-0.5-2.1c-0.2-1.5-0.4-3.2-0.8-4.6c-0.2-0.7-0.1-1.4-0.1-2.1c0-0.8-0.2-1-0.4-1.6c-0.4-1.5-0.7-3-1.1-4.5
		c-0.3-1.1-0.6-2.2-0.9-3.3c-0.3-1-1.1-2.2-1.3-3.2c-0.3-1.3,0-3,0-4.3c0-0.6,0-1.2,0-1.8c0-0.8-0.3-0.9-0.5-1.6s0.1-1.6,0-2.3
		c-0.1-0.6-0.4-0.8-0.5-1.3c-0.3-1,0-2.5,0-3.6c-0.7,5.8-1.5,14.1-1.7,24.1c-0.3,11.9,0.4,20.9,1.2,32.8c0.8,11,1.9,20.5,2.5,26.4
		c0.9,9.7,1.6,13,1.6,13l0,0c0.4,1.4,0.9,3.6,1.6,6.1c1.3,4.4,2.6,9.1,4.8,13.7c1.6,3.6,3.2,5.9,6.2,10.5c2.6,3.9,3.3,6.6,9.6,14.2
		l0,0c2.6,3.6,11.2,15.1,22,25.9c6,6,12.7,11.1,26.2,21.4c16.8,12.8,22.5,15.5,24.7,16.6c3.9,1.9,11.5,5.1,21.7,7.4
		c8.3,1.8,15.7,2.4,21.5,2.4c5.3,0,13.7,0.1,23.9-2.6c9-2.3,15.1-5.6,22.3-9.5c5.9-3.2,13.9-8,22.5-14.8l0,0
		c0.1-0.1,9.3-6.6,16.2-13.3c0.9-0.8,2-2,8.7-9.5c7.3-8.1,11.7-12.4,21.1-24.4c1.7-2.2,3.4-4.4,5.6-7.6c2.4-3.4,6.7-9.6,10.5-17.3
		c1.6-3.3,7.6-15.7,9.8-31.8c0.9-6.5,1.1-13.5,1.2-15.9C651.3,447.5,651.4,444.8,651.3,439.9z M554.3,537.5
		c-14.7,18.9-38,22.5-45,23.3c-7-0.8-30.4-4.4-45.2-23.3c-3.7-4.8-6.2-9.7-7.9-14c-10.8-14.6-15.3-27.1-18.1-34.9
		c-2.5-6.7-2.8-11.7,0.1-15.3c3.1-3.8,9-3.8,11.1-3.7c4.7-0.8,9.8-1.5,15.3-2c2.7-0.3,9.2-0.8,17.5-0.9c7-0.1,15.8,0.1,26,1.1
		c8.3-0.8,17.7-1.3,27.9-1.1c12,0.2,22.8,1.4,32.1,2.9c1.9-0.1,8.5-0.3,11.8,3.7c2.9,3.5,2.6,8.5,0.1,15.3
		c-2.9,7.9-7.3,20.4-18.1,34.9C560.5,527.8,558.1,532.7,554.3,537.5z"/>
	<path class="st28" d="M651.6,373.6c-0.3,0-0.5,5.2-0.5,12.6C652,383.5,652,373.6,651.6,373.6z"/>
	<path class="st28" d="M530.7,526c-0.2,0-0.2,0.2-0.4,0.2s-0.5,0-0.7,0c-0.3,0-0.4,0.1-0.7,0.2c-0.5,0.1-1,0.2-1.5,0.3
		c-0.6,0.2-1.1,0.5-1.6,0.8c-0.3,0.2-0.7,0.3-1,0.5c-0.5,0.3-1.1,0.5-1.6,0.8c-0.3,0.1-0.5,0.3-0.8,0.4c-0.3,0.1-0.7,0.1-1.1,0.3
		c-0.7,0.3-1.3,0.6-2,0.8s-1.2,0.6-1.8,0.9c-0.5,0.2-1,0.4-1.6,0.4c-0.2,0-0.2,0-0.2,0.1c0,0-0.1,0-0.2,0c-0.3-0.1-0.6-0.2-0.8-0.4
		c-0.5-0.2-0.9-0.1-1.4-0.2c-0.6-0.1-1-0.3-1.7-0.2c-0.3,0.1-0.8,0.3-1.1,0.4c-0.4,0.2-0.8,0.1-1.2,0.3c0,0,0,0,0,0.1c0,0,0,0,0-0.1
		c-0.5-0.1-0.8-0.1-1.2-0.3c-0.3-0.1-0.7-0.3-1.1-0.4c-0.6-0.2-1,0.1-1.7,0.2c-0.5,0.1-0.9,0-1.4,0.2c-0.3,0.1-0.6,0.3-0.8,0.4
		c-0.1,0-0.1,0-0.2,0c0,0-0.1,0-0.2-0.1c-0.6-0.1-1.1-0.2-1.6-0.4c-0.7-0.3-1.1-0.7-1.8-0.9s-1.3-0.6-2-0.8
		c-0.3-0.1-0.7-0.1-1.1-0.3c-0.3-0.1-0.5-0.3-0.8-0.4c-0.6-0.3-1.1-0.5-1.6-0.8c-0.4-0.2-0.7-0.3-1-0.5c-0.5-0.3-1-0.6-1.6-0.8
		c-0.5-0.1-1-0.2-1.5-0.3c-0.3-0.1-0.4-0.2-0.7-0.2c-0.2,0-0.5,0.1-0.7,0c-0.2,0-0.2-0.2-0.4-0.2s-0.5,0-0.7,0
		c-0.6,0-1.7,0.2-2.3,0.2c0,1.9,0,3.2,0.7,4.7c0.6,1.2,0.7,2.3,1.1,3.4c0.4,1,1.2,2.8,1.9,3.6c0.8,1,1.9,1.3,3.2,1.9
		c2.3,1.1,4.1,2.9,6.6,3.5c1.5,0.4,2.5,0.4,4,1.1c0.6,0.3,0.9,0.3,1.2,0.4c1.2,0.4,3,0.7,5.8,0.3c2.8,0.4,4.6,0.1,5.8-0.3
		c0.3-0.1,0.6-0.1,1.2-0.4c1.5-0.7,2.5-0.7,4-1.1c2.5-0.7,4.3-2.4,6.6-3.5c1.3-0.6,2.4-0.9,3.2-1.9c0.7-0.8,1.5-2.6,1.9-3.6
		c0.4-1.1,0.6-2.2,1.1-3.4c0.7-1.6,0.7-2.9,0.7-4.7c-0.6,0-1.7-0.2-2.3-0.2C531.2,526,530.9,525.9,530.7,526z"/>
</g>
<path class="st7" d="M362.5,393.4c-3.1,1.3-5.2,4-5.4,7.1c-0.2,3.8,2.5,7.4,6.6,8.5c-0.8-1.5-1.9-4-2.2-7.2
	C361.1,398,361.9,395.1,362.5,393.4z"/>
<path class="st7" d="M653.4,393.6c3.1,1.3,5.2,4,5.4,7.1c0.2,3.8-2.5,7.4-6.6,8.5c0.8-1.5,1.9-4,2.2-7.2
	C654.8,398.3,654,395.3,653.4,393.6z"/>
<path class="st7" d="M660.2,439.6c-0.2,0.5-0.6,1.2-1.5,1.8c-1.4,1-2.9,0.8-3.5,0.8c-0.6-0.1-1.2-0.1-1.7-0.5c-1.5-1.1-1-3.7-1-3.8
	c0.3,0.4,1.6,1.9,3.9,2.3C658.3,440.4,659.7,439.8,660.2,439.6z"/>
<path class="st7" d="M359.3,440.1c0.4,0.7,0.9,1.1,1.2,1.4c1.4,1,2.9,0.8,3.5,0.8c0.6-0.1,1.2-0.1,1.7-0.5c1.2-0.9,1-2.6,1-2.8
	c-0.4,0.4-1.7,1.6-3.7,1.8C361.2,441,359.8,440.4,359.3,440.1z"/>
<path class="st3" d="M507.1,502.1c0,3.4,0,6.8,0,10.2"/>
<g>
	<path class="st27" d="M588.9,115.2c0,0,4.4-6.9,28.4-6.9"/>
	<path class="st27" d="M476.5,113.1c0,0,21.5-25.3,39.7-30.7"/>
	<g>
		<path class="st27" d="M583.1,102.9c0,0,20.1-5,38.9,1.1"/>
		<path class="st27" d="M537.4,130c0,0,8-12.2,24.8-15.8"/>
		<path class="st27" d="M442.8,121.4c4.1-5,10.1-11.5,18.7-17.6c8.1-5.7,15.7-9.3,21.7-11.6c0.5-0.4,1.1-0.8,1.6-1.2"/>
		<path class="st27" d="M589.9,135.4c0,0,13.3-13.4,20.4-14.7"/>
		<path class="st27" d="M562.4,133c0,0,6.9-8.4,10-9"/>
		<path class="st27" d="M649.1,169.5c0,0,4.9-7.5,7.5-6.8"/>
		<path class="st27" d="M643.5,157.3c0,0,7.3-11.7,15.9-14"/>
		<path class="st27" d="M450.3,155.9c0,0,24.7-30.1,43.1-34"/>
		<path class="st27" d="M480.3,158.3c0,0,39-41.3,68.4-49.1"/>
		<path class="st27" d="M380,231.2c0,0,0-35.2,28.1-56"/>
		<path class="st27" d="M400.6,143.5c0,0,28.7-41.6,45.3-47"/>
		<path class="st27" d="M581.5,154.8c0,0,10.8-15.8,21.5-18.5"/>
		<path class="st27" d="M608.6,147.2c0,0,9.8-10.4,11.2-10.4"/>
		<path class="st27" d="M595.5,168.4c0,0,18.3-25.8,33.7-24.4"/>
		<path class="st27" d="M639.2,203.5c0,0,13.1-20.5,18.1-22.3"/>
		<path class="st27" d="M521.5,199.1c0,0,10.8-18.1,31.4-22.6"/>
		<path class="st27" d="M485.6,191.7c0,0,19.7-31.6,53.9-41.1"/>
		<path class="st27" d="M569.4,186.5c0,0,4.1-6.3,12.5-8.1"/>
		<path class="st27" d="M459.6,188.7c3-4.1,7.5-9.2,14.1-13.8c2.9-2.1,5.8-3.7,8.4-5"/>
	</g>
</g>
<ellipse class="st29" cx="616" cy="357.6" rx="15" ry="14.5"/>
<ellipse class="st29" cx="457.4" cy="358.2" rx="15" ry="14.5"/>
<path class="st30" d="M473.5,412.5c0,0,6.6-5,13.1-4.5c0.1-2.6,0.4-5.4,0.7-8.3c0.7-5.6,1.7-10.7,2.9-15.2c0.1,5.3,0.2,10.7,0.3,16
	c0.1,4.2,0.2,8.4,0.2,12.5C490.8,413,481.9,409.8,473.5,412.5z"/>
<path class="st31" d="M515.7,425.6c0.8-0.9,2.2-2.3,4.2-3.4c6.8-4.1,14.5-2.1,16.3-1.7c1.8,0.5,4.8,1.4,8,3.6c0.5,0,3.1,0.1,4.8-1.8
	c1.9-2.1,1.9-5.7-0.5-8.5c-0.2-0.1-2.7-1.4-5.3-0.2c-1.9,0.9-2.6,2.7-2.8,3.1c-3.9-6.8-8-14.9-11.6-24.2c-5-12.9-7.8-24.8-9.4-34.6
	C518.2,380.5,516.9,403.1,515.7,425.6z"/>
<path class="st32" d="M394.2,581.8c38.5,31.9,77,63.8,115.5,95.6c-11.3,17.4-22.6,34.8-33.9,52.2c-7.2-6-15.8-13.6-25.2-22.6
	c-14.9-14.2-25.5-26.2-30.3-31.6c-12-13.7-26.8-32.3-42-56c1.7-5.7,3.8-11.8,6.5-18.3C387.9,593.8,391.1,587.4,394.2,581.8z"/>
<path class="st32" d="M621,580.4c-37.1,32.4-74.2,64.8-111.2,97.1c10.7,18.1,21.4,36.1,32.1,54.2c17.7-15.8,37.5-35.9,57.1-61
	c14.4-18.5,26-36.4,35.3-52.7c-1.3-5.4-3-11.1-5-17.2C626.7,593.3,623.9,586.4,621,580.4z"/>
<path class="st33" d="M683.5,762.3c3,82.7,6,165.3,9,248"/>
<path class="st33" d="M309.5,763.3c-5.7,82-11.3,164-17,246"/>
<path class="st34" d="M498.1,720"/>
<circle class="st26" cx="509.1" cy="718.3" r="4.3"/>
<circle class="st26" cx="509.9" cy="778.2" r="4.3"/>
<circle class="st26" cx="509.4" cy="838.3" r="4.3"/>
<circle class="st26" cx="509.7" cy="901.5" r="4.3"/>
<circle class="st26" cx="510.2" cy="969.1" r="4.3"/>
<path class="st35" d="M134.5,821.7"/>
<polygon class="st36" points="144.2,366.4 175.7,324.4 222.2,370.9 "/>
<path class="st36" d="M873.4,760.7c3-6.3,5.9-13,8.8-20c3.7-9.2,7-18.1,9.8-26.5c-18.8,0.7-37.5,1.5-56.2,2.2
	C848.2,731.2,860.8,745.9,873.4,760.7z"/>
<circle class="st0" cx="97" cy="285.7" r="12.4"/>
<circle class="st0" cx="111" cy="327.7" r="18"/>
<circle class="st0" cx="934" cy="741.9" r="12.4"/>
<circle class="st0" cx="948" cy="699.9" r="18"/>
<path class="st37" d="M458.7,249.3c0,0,47.8-9.9,112-1.3"/>
<path class="st37" d="M478,235.3c0,0,25.3-3.5,43.3-0.5L478,235.3z"/>
<path class="st20" d="M657.6,340.1c0,0,28.1-7.1,7.6,41.6c0,0,1,20-1.1,26c-1,2.4-2,5.8-2.5,10s-0.2,7.8,0.2,10.4
	c0.2,1.2,0.2,2.1,0.2,2.9c0,0,0,0.1,0,0.2c-0.1,1.1-0.3,1.9-0.4,2.2c-0.8,3.3-0.9,5.3-2.6,7c-0.2,0.2-0.4,0.4-0.6,0.5
	c-0.6,0-1.4,0-2.2-0.1c-1.2-0.1-2.1-0.4-2.9-0.7"/>
</svg>
