<?xml version="1.0" encoding="utf-8"?>
<!-- Generator: Adobe Illustrator 19.2.0, SVG Export Plug-In . SVG Version: 6.00 Build 0)  -->
<svg version="1.1" id="Layer_1" xmlns="http://www.w3.org/2000/svg" xmlns:xlink="http://www.w3.org/1999/xlink" x="0px" y="0px"
	 viewBox="0 0 850.4 850.4" style="enable-background:new 0 0 850.4 850.4;" xml:space="preserve">
<style type="text/css">
	.st0{fill:#010202;}
	.st1{fill:#E54E27;}
	.st2{fill:#EC662B;}
	.st3{fill:#EBEBEB;}
	.st4{fill:#FFFFFF;}
	.st5{fill:#F0C727;}
	.st6{fill:#FBDE35;}
	.st7{fill:#151515;}
	.st8{fill:#020304;}
	.st9{enable-background:new    ;}
	.st10{fill:#1D59A6;}
	.st11{fill:#3A99D5;}
	.st12{fill:#E9E8E7;}
	.st13{fill:#FCFCFB;}
	.st14{fill:#E5E4E2;}
	.st15{fill:#EFEEEE;}
	.st16{fill:#E8E7E6;}
	.st17{fill:#F9F9F8;}
	.st18{fill:#1C1C1C;}
</style>
<g>
	<path class="st0" d="M34.6,162.8h16.3V180h15v-17.2h16.3V215H65.9v-17.4H51V215H34.6 M103.6,180.2H89.3v-17.4h45v17.4h-14.4V215
		h-16.3 M141.4,162.8h17l10.5,18.4l10.5-18.4h17V215h-16.3v-25.8l-11.4,18.7l-11.4-18.7V215h-16 M204.4,162.8h16.3v34.9h23V215
		h-39.3"/>
	<path class="st1" d="M34.1,518.8L10.8,238.8h256.4l-23.3,279.8l-105.1,31.1"/>
	<path class="st2" d="M138.9,526V261.8h104.8l-20,238.8"/>
	<path class="st3" d="M58.4,296.1h80.6v34.3H93.6l3,35.1h42.4v34.2H67.1 M68.6,417h32.2l2.3,27.4l35.9,10.3v35.8l-65.9-19.7"/>
	<path class="st4" d="M219.2,296.1h-80.4v34.3h77.4 M213.3,365.5h-74.5v34.3h39.6l-3.7,44.6l-35.8,10.3v35.7l65.7-19.5"/>
</g>
<g>
	<polygon class="st5" points="325.5,587.7 302.3,308.7 557.6,308.7 534.3,587.6 429.8,618.7 	"/>
	<polygon class="st6" points="429.7,594.6 514.2,569.5 534.1,331.2 429.7,331.2 	"/>
	<polygon class="st3" points="429.7,523.5 429.5,523.6 393.9,513.3 391.7,486 374.4,486 359.6,486 364.1,539.7 429.5,559.2 
		429.7,559.1 	"/>
	<polygon class="st3" points="434,468.9 434,434.7 394.6,434.7 399.2,381 434.1,380 434,344.4 370.3,344.4 368,369.6 360.5,459.7 
		359.7,468.9 368.3,468.9 	"/>
	<polygon class="st4" points="433.7,380 433.9,380 468.8,382.2 471.8,417.6 489,417.6 503.8,417.6 498.2,351.5 433.9,344.4 
		433.7,344.4 	"/>
	<polyline class="st4" points="500.5,380.1 497.8,344.4 430.3,344.4 430.3,366.6 430.3,380 430.3,380.1 500.5,380.1 	"/>
	<polygon class="st4" points="429.6,434.7 429.6,468.9 468.9,468.9 465.2,513.3 429.6,523.6 429.6,559.2 495.1,539.7 495.5,533.9 
		503.1,443.9 503.8,434.7 495.2,434.7 	"/>
	<path class="st4" d="M496.4,378.6"/>
	<g>
		<polygon class="st7" points="474.9,247.1 453.7,247.1 475.8,272.7 475.8,284.9 430.4,284.9 430.4,270.6 452.4,270.6 430.4,245.1 
			430.4,232.8 474.9,232.8 		"/>
		<path class="st8" d="M422.3,232.9v52h-39.1v-17.2h22.8v-34.8H422.3L422.3,232.9z"/>
	</g>
	<path class="st4" d="M496,378.6"/>
</g>
<g>
	<g id="形状_1_19_" class="st9">
		<g id="形状_1">
			<g>
				<polygon class="st10" points="588.2,240.2 612.2,521.7 716.1,552 820,521.7 844,240.2 				"/>
			</g>
		</g>
	</g>
	<g id="形状_1_18_" class="st9">
		<g id="形状_1_1_">
			<g>
				<polygon class="st11" points="716.1,263 716.1,527.8 716.3,527.9 800.4,503.4 819.8,263 				"/>
			</g>
		</g>
	</g>
	<g id="形状_1_17_" class="st9">
		<g id="形状_1_2_">
			<g>
				<polygon class="st12" points="715.8,455.8 715.7,455.8 681,446.2 678.9,418.6 646.7,418.6 650.9,472 716.1,493 716.1,455.7 				
					"/>
			</g>
		</g>
	</g>
	<g id="形状_1_16_" class="st9">
		<g id="形状_1_3_">
			<g>
				<polygon class="st13" points="716.1,366.6 716.1,400.4 716.2,400.4 754.7,400.5 752.3,444.7 716.2,455.8 716.1,455.8 716.1,493 
					716.2,493 716.2,493 781.6,472.3 790.1,366.6 				"/>
			</g>
		</g>
	</g>
	<g id="形状_1_15_" class="st9">
		<g id="形状_1_4_">
			<g>
				<polygon class="st14" points="642.1,366.6 644.6,400.4 644.6,400.4 716.1,400.4 716.1,366.6 				"/>
			</g>
		</g>
	</g>
	<g id="形状_1_14_" class="st9">
		<g id="形状_1_5_">
			<g>
				<polygon class="st15" points="642.1,366.6 715.9,366.6 716.1,366.5 716.1,332.6 				"/>
			</g>
		</g>
	</g>
	<g id="形状_1_13_" class="st9">
		<g id="形状_1_6_">
			<g>
				<polygon class="st4" points="720.4,331 716.1,333 716.1,366.5 792.4,331 				"/>
			</g>
		</g>
	</g>
	<g id="形状_1_12_" class="st9">
		<g id="形状_1_7_">
			<g>
				<polygon class="st16" points="635.2,297.1 639.1,331 716.1,331 716.1,297.1 				"/>
			</g>
		</g>
	</g>
	<g id="形状_1_11_" class="st9">
		<g id="形状_1_8_">
			<g>
				<path class="st17" d="M716.1,331l79.3-33.9h-79.3V331z M716.1,331h76.1l3.2-33.9L716.1,331z"/>
			</g>
		</g>
	</g>
	<g id="形状_1_10_" class="st9">
		<g id="形状_1_9_">
			<g>
				<path class="st18" d="M640.2,215.5h39.5v-16.7h-22.6v-16.8h22.6v-18.3h-39.5V215.5z M696.6,182.1c5.3,5.7,8,8.5,15.7,16.7
					c-4.5,0-15.7,0-15.7,0v16.7H736v-16.7l-15.8-16.8H736v-18.3h-39.5C696.6,163.7,696.6,172.9,696.6,182.1z M792,163.7h-39.5
					c0,0,0,9.2,0,18.3c5.3,5.7,8,8.5,15.7,16.7c-4.5,0-15.7,0-15.7,0v16.7H792v-16.7l-15.8-16.8H792V163.7z"/>
			</g>
		</g>
	</g>
</g>
</svg>
